<?xml version="1.0" encoding="UTF-8" standalone="no"?>
<!-- Created with Inkscape (http://www.inkscape.org/) -->

<svg
   xmlns:dc="http://purl.org/dc/elements/1.1/"
   xmlns:cc="http://creativecommons.org/ns#"
   xmlns:rdf="http://www.w3.org/1999/02/22-rdf-syntax-ns#"
   xmlns:svg="http://www.w3.org/2000/svg"
   xmlns="http://www.w3.org/2000/svg"
   xmlns:sodipodi="http://sodipodi.sourceforge.net/DTD/sodipodi-0.dtd"
   xmlns:inkscape="http://www.inkscape.org/namespaces/inkscape"
   width="1000"
   height="1000"
   version="1.1"
   viewBox="0 0 1000 999.99995"
   id="svg1069"
   sodipodi:docname="logo-text-below_1000px-1000px.svg"
   inkscape:version="0.92.2 (5c3e80d, 2017-08-06)">
  <defs
     id="defs1073" />
  <sodipodi:namedview
     pagecolor="#ffffff"
     bordercolor="#666666"
     borderopacity="1"
     objecttolerance="10"
     gridtolerance="10"
     guidetolerance="10"
     inkscape:pageopacity="1"
     inkscape:pageshadow="2"
     inkscape:window-width="640"
     inkscape:window-height="480"
     id="namedview1071"
     showgrid="false"
     inkscape:zoom="0.71086945"
     inkscape:cx="-106.07868"
     inkscape:cy="284.22962"
     inkscape:current-layer="svg1069"
     units="px"
     fit-margin-top="5"
     fit-margin-left="5"
     fit-margin-right="5"
     fit-margin-bottom="5"
     inkscape:pagecheckerboard="false"
     inkscape:showpageshadow="false"
     showborder="true" />
  <title
     id="title815">logo-text-below_1000px-1000px</title>
  <metadata
     id="metadata817">
    <rdf:RDF>
      <cc:Work
         rdf:about="">
        <dc:format>image/svg+xml</dc:format>
        <dc:type
           rdf:resource="http://purl.org/dc/dcmitype/StillImage" />
        <dc:title>logo-text-below_1000px-1000px</dc:title>
        <dc:creator>
          <cc:Agent>
            <dc:title>Andrew Graham</dc:title>
          </cc:Agent>
        </dc:creator>
        <dc:publisher>
          <cc:Agent>
            <dc:title>AWGM</dc:title>
          </cc:Agent>
        </dc:publisher>
        <dc:subject>
          <rdf:Bag>
            <rdf:li>AWGM</rdf:li>
          </rdf:Bag>
        </dc:subject>
        <dc:description>Logo for IoT Project Team
ICT302</dc:description>
        <dc:date>29/4/18</dc:date>
      </cc:Work>
    </rdf:RDF>
  </metadata>
  <g
     transform="translate(-204.84526,888.58659)"
     display="none"
     id="g971"
     style="display:none">
    <path
       d="m 1577.4,-363.3 a 317.5,317.5 0 0 1 -317.5,317.5 317.5,317.5 0 0 1 -317.5,-317.5 317.5,317.5 0 0 1 317.5,-317.5 317.5,317.5 0 0 1 317.5,317.5 z"
       style="opacity:0.47300002;fill:#999999;fill-rule:evenodd;paint-order:normal"
       id="path819"
       inkscape:connector-curvature="0" />
    <g
       transform="translate(-619.64,-113)"
       id="g837"
       style="fill-rule:evenodd">
      <path
         d="m -221.79,-29.096 h 6.361 v 16.557 h -6.361 z"
         style="fill:#999999;paint-order:normal"
         id="path821"
         inkscape:connector-curvature="0" />
      <g
         id="g831"
         style="fill:#333333">
        <path
           transform="translate(8.7092,3.4933)"
           d="m -229.23,-162.65 c -0.0723,5.7e-4 -0.13069,0.059 -0.13126,0.13126 l -2.3791,67.474 -0.0191,69.101 c -0.001,0.07427 0.0585,0.13518 0.13282,0.13488 h 8.6056 c 0.0743,3.03e-4 0.13255,-0.05813 0.13282,-0.13488 l 0.004,-68.94 -2.4034,-67.634 c -5.7e-4,-0.0729 -0.06,-0.13155 -0.13282,-0.13126 z"
           style="paint-order:normal"
           id="path823"
           inkscape:connector-curvature="0" />
        <rect
           transform="translate(8.7092,3.4933)"
           x="-228.21001"
           y="-165.86"
           width="1.7721"
           height="4.3381"
           style="paint-order:normal"
           id="rect825" />
        <path
           transform="translate(8.7092,3.4933)"
           d="m -229.23,-167.71 h 3.8049 v 2.9848 h -3.8049 z"
           style="stroke:#333333;stroke-width:0.26458001;stroke-linecap:round;stroke-linejoin:round;paint-order:normal"
           id="path827"
           inkscape:connector-curvature="0" />
        <circle
           transform="translate(8.7092,3.4933)"
           cx="-227.32001"
           cy="-167.7"
           r="1.9035"
           style="stroke:#333333;stroke-width:0.26458001;stroke-linecap:round;stroke-linejoin:round;paint-order:normal"
           id="circle829" />
      </g>
      <path
         d="m -218.61,-21.938 a 5.132,5.131 0 0 0 -5.131,5.1134 h -10e-4 v 13.953 a 5.1332,1.5669 0 0 0 -0.003,0.015503 5.1332,1.5669 0 0 0 0.003,0.022221 v 0.022221 h 0.003 a 5.1332,1.5669 0 0 0 5.1284,1.5224 5.1332,1.5669 0 0 0 5.1258,-1.5224 h 0.005 v -0.031523 a 5.1332,1.5669 0 0 0 0.002,-0.012919 5.1332,1.5669 0 0 0 -0.002,-0.01757 v -13.892 a 5.132,5.131 0 0 0 0.002,-0.04186 5.132,5.131 0 0 0 -5.132,-5.131 z"
         style="fill:#4d4d4d;paint-order:normal"
         id="path833"
         inkscape:connector-curvature="0" />
      <circle
         cx="-218.64999"
         cy="-17.854"
         r="1.7859"
         style="fill:#d3bc5f;paint-order:normal"
         id="circle835" />
    </g>
    <g
       id="g931">
      <ellipse
         cx="105"
         cy="161.8"
         rx="114.3"
         ry="33.602001"
         style="opacity:0.05700001;fill-rule:evenodd;paint-order:normal"
         id="ellipse839" />
      <g
         id="g887">
        <ellipse
           cx="98.244003"
           cy="178.21001"
           rx="70.776001"
           ry="15.346"
           style="fill-opacity:0;paint-order:normal"
           id="ellipse841" />
        <g
           id="g855"
           style="fill-rule:evenodd">
          <path
             d="m 18.258,135.84 0.08578,0.25683 A 86.783,25.243 0 0 1 18.31277,135.84 Z"
             style="fill-opacity:0.49468001;paint-order:normal"
             id="path843"
             inkscape:connector-curvature="0" />
          <path
             d="m 191.63,135.84 a 86.783,25.243 0 0 1 -0.10387,0.60255 l 0.20153,-0.60255 z"
             style="fill-opacity:0.49468001;paint-order:normal"
             id="path845"
             inkscape:connector-curvature="0" />
          <path
             d="m 190.85,138.42 c -5.9129,12.48 -42.557,21.782 -85.869,21.797 -43.247,-0.0138 -79.859,-9.2871 -85.851,-21.745 l 8.2631,24.72 c 0.56844,1.419 -0.30313,-0.74533 0.56844,1.419 5.068,11.251 38.008,19.669 77.02,19.683 39.016,-0.0121 71.962,-8.4307 77.031,-19.683 l 0.39945,-0.94723 z"
             style="fill:#4d4d4d;paint-order:normal"
             id="path847"
             inkscape:connector-curvature="0" />
          <path
             d="m 190.86,138.42 c -5.9129,12.48 -42.557,21.782 -85.869,21.797 -43.247,-0.0138 -79.859,-9.2871 -85.851,-21.745 l 3.0727,9.1917 a 89.826,26.82 0 0 0 82.787,16.479 89.826,26.82 0 0 0 82.736,-16.376 89.826,26.82 0 0 0 5.2e-4,-5.2e-4 z"
             style="opacity:0.11700003;fill:#333333;paint-order:normal"
             id="path849"
             inkscape:connector-curvature="0" />
          <ellipse
             cx="104.99"
             cy="134.98"
             rx="86.782997"
             ry="25.243"
             style="fill:#333333;fill-opacity:0.49468001;paint-order:normal"
             id="ellipse851" />
          <ellipse
             cx="105"
             cy="135.52"
             rx="89.825996"
             ry="26.82"
             style="fill:#666666;stroke:#4d4d4d;stroke-width:0.52916998;stroke-linecap:round;stroke-linejoin:round;paint-order:normal"
             id="ellipse853" />
        </g>
        <g
           transform="translate(116.37,12.445)"
           id="g861"
           style="fill:#d38d5f;fill-rule:evenodd">
          <path
             transform="scale(0.26458)"
             d="m -65.211,373.18 a 303,88.134 0 0 0 -13.143,0.46289 303,88.134 0 0 1 13.143,-0.46289 z m -30.311,1.0996 a 303,88.134 0 0 0 -11.082,0.72461 303,88.134 0 0 1 11.082,-0.72461 z m -29.566,1.9648 a 303,88.134 0 0 0 -9.5312,0.91993 303,88.134 0 0 1 9.5312,-0.91993 z m -28.844,2.8262 a 303,88.134 0 0 0 -7.4102,0.96484 303,88.134 0 0 1 7.4102,-0.96484 z m -27.611,3.6367 a 303,88.134 0 0 0 -6.4414,1.0742 303,88.134 0 0 1 6.4414,-1.0742 z m -26.271,4.4297 a 303,88.134 0 0 0 -4.9824,1.0371 303,88.134 0 0 1 4.9824,-1.0371 z m -24.607,5.1719 a 303,88.134 0 0 0 -3.7637,0.96093 303,88.134 0 0 1 3.7637,-0.96093 z m -22.68,5.8535 a 303,88.134 0 0 0 -2.9062,0.90821 303,88.134 0 0 1 2.9062,-0.90821 z m 472.18,4.707 a 303,120.13 0 0 1 41.348,49.93 303,88.134 0 0 1 1.6055,8.2637 303,88.134 0 0 1 -303,88.135 303,88.134 0 0 1 -303,-88.135 303,88.134 0 0 1 1.4219,-8.2656 303,88.134 0 0 1 0.33789,-1.0059 303,120.13 0 0 1 40.9,-48.803 334.69,97.35 0 0 0 -74.414,61.074 334.69,97.35 0 0 0 334.69,97.352 334.69,97.35 0 0 0 334.69,-97.352 334.69,97.35 0 0 0 -74.57,-61.193 z m -492.76,1.7871 a 303,88.134 0 0 0 -1.834,0.70118 303,88.134 0 0 1 1.834,-0.70118 z m -18.238,7.0586 a 303,88.134 0 0 0 -0.98242,0.46679 303,88.134 0 0 1 0.98242,-0.46679 z m -15.705,7.5469 a 303,88.134 0 0 0 -0.50977,0.30664 303,88.134 0 0 1 0.50977,-0.30664 z m -13.031,7.9668 a 303,88.134 0 0 0 -0.16992,0.13477 303,88.134 0 0 1 0.16992,-0.13477 z m -10.221,8.2949 a 303,88.134 0 0 0 -0.0781,0.0899 303,88.134 0 0 1 0.0781,-0.0899 z"
             style="paint-order:normal"
             id="path857"
             inkscape:connector-curvature="0" />
          <path
             transform="scale(0.26458)"
             d="m -42.967,343.93 a 303,120.13 0 0 0 -301.24,107.86 303,88.134 0 0 0 -0.33789,1.0059 303,88.134 0 0 0 -1.4219,8.2656 303,88.134 0 0 0 303,88.135 303,88.134 0 0 0 303,-88.135 303,88.134 0 0 0 -1.6055,-8.2637 303,120.13 0 0 0 -301.39,-108.87 z m -22.244,29.25 a 303,88.134 0 0 0 -13.143,0.46289 303,88.134 0 0 1 13.143,-0.46289 z m -30.311,1.0996 a 303,88.134 0 0 0 -11.082,0.72461 303,88.134 0 0 1 11.082,-0.72461 z m -29.566,1.9648 a 303,88.134 0 0 0 -9.5312,0.91993 303,88.134 0 0 1 9.5312,-0.91993 z m -28.844,2.8262 a 303,88.134 0 0 0 -7.4102,0.96484 303,88.134 0 0 1 7.4102,-0.96484 z m -27.611,3.6367 a 303,88.134 0 0 0 -6.4414,1.0742 303,88.134 0 0 1 6.4414,-1.0742 z m -26.271,4.4297 a 303,88.134 0 0 0 -4.9824,1.0371 303,88.134 0 0 1 4.9824,-1.0371 z m -24.607,5.1719 a 303,88.134 0 0 0 -3.7637,0.96093 303,88.134 0 0 1 3.7637,-0.96093 z m -22.68,5.8535 a 303,88.134 0 0 0 -2.9062,0.90821 303,88.134 0 0 1 2.9062,-0.90821 z m -20.582,6.4941 a 303,88.134 0 0 0 -1.834,0.70118 303,88.134 0 0 1 1.834,-0.70118 z m -18.238,7.0586 a 303,88.134 0 0 0 -0.98242,0.46679 303,88.134 0 0 1 0.98242,-0.46679 z m -15.705,7.5469 a 303,88.134 0 0 0 -0.50977,0.30664 303,88.134 0 0 1 0.50977,-0.30664 z m -13.031,7.9668 a 303,88.134 0 0 0 -0.16992,0.13477 303,88.134 0 0 1 0.16992,-0.13477 z m -10.221,8.2949 a 303,88.134 0 0 0 -0.0781,0.0899 303,88.134 0 0 1 0.0781,-0.0899 z"
             style="paint-order:normal"
             id="path859"
             inkscape:connector-curvature="0" />
        </g>
        <g
           id="g877"
           style="fill:#603f2a;fill-rule:evenodd;stroke:#a76d48;stroke-width:1.48440003;stroke-linecap:round;stroke-linejoin:round">
          <rect
             transform="matrix(-0.81725,0.57628,-0.9479,0.31856,0,0)"
             x="442.25"
             y="-442.51999"
             width="14.403"
             height="14.403"
             style="paint-order:normal"
             id="rect863" />
          <rect
             transform="matrix(-0.60999,0.79241,-0.81109,0.58492,0,0)"
             x="480.60999"
             y="-446.26001"
             width="14.403"
             height="14.403"
             style="paint-order:normal"
             id="rect865" />
          <rect
             transform="matrix(-0.21457,0.97671,-0.48487,0.87459,0,0)"
             x="468.23999"
             y="-382.57001"
             width="14.403"
             height="14.403"
             style="paint-order:normal"
             id="rect867" />
          <rect
             transform="matrix(0.15331,0.98818,-0.13562,0.99076,0,0)"
             x="422.48001"
             y="-295.60999"
             width="14.403"
             height="14.403"
             style="paint-order:normal"
             id="rect869" />
          <rect
             transform="matrix(0.81725,0.57628,0.9479,0.31856,0,0)"
             x="208.14"
             y="-18.184"
             width="14.403"
             height="14.403"
             style="paint-order:normal"
             id="rect871" />
          <rect
             transform="matrix(0.60999,0.79241,0.81109,0.58492,0,0)"
             x="49.887001"
             y="137.7"
             width="14.403"
             height="14.403"
             style="paint-order:normal"
             id="rect873" />
          <rect
             transform="matrix(0.21457,0.97671,0.48487,0.87459,0,0)"
             x="-176.45"
             y="337.70999"
             width="14.403"
             height="14.403"
             style="paint-order:normal"
             id="rect875" />
        </g>
        <g
           transform="translate(116.37,-64.822)"
           id="g881"
           style="fill:#2e1809">
          <path
             d="m 38.435,175.17 a 78.788,31.238 0 0 1 28.496,21.212 78.788,22.917 0 0 1 0.41754,2.1487 78.788,22.917 0 0 1 -78.788,22.917 78.788,22.917 0 0 1 -78.788,-22.917 78.788,22.917 0 0 1 0.37,-2.1492 78.788,22.917 0 0 1 0.08785,-0.26149 78.788,31.238 0 0 1 21.661,-18.485 80.169,31.785 0 0 0 -22.962,19.164 80.169,23.319 0 0 0 -0.0894,0.26614 80.169,23.319 0 0 0 -0.37621,2.187 80.169,23.319 0 0 0 80.169,23.319 80.169,23.319 0 0 0 80.169,-23.319 80.169,23.319 0 0 0 -0.42478,-2.1864 80.169,31.785 0 0 0 -29.941,-21.895 z m -55.659,0.50901 a 78.788,22.917 0 0 0 -3.4174,0.12041 78.788,22.917 0 0 1 3.4174,-0.12041 z m -7.8812,0.28577 a 78.788,22.917 0 0 0 -2.882,0.18862 78.788,22.917 0 0 1 2.882,-0.18862 z m 7.8512,0.0346 a 80.169,23.319 0 0 0 -3.4773,0.12247 80.169,23.319 0 0 1 3.4773,-0.12247 z m -8.0197,0.29094 a 80.169,23.319 0 0 0 -2.9321,0.19172 80.169,23.319 0 0 1 2.9321,-0.19172 z m -7.52,0.18551 a 78.788,22.917 0 0 0 -2.4784,0.23927 78.788,22.917 0 0 1 2.4784,-0.23927 z m -0.30282,0.33435 a 80.169,23.319 0 0 0 -2.5218,0.2434 80.169,23.319 0 0 1 2.5218,-0.2434 z m -7.197,0.40049 a 78.788,22.917 0 0 0 -1.927,0.25115 78.788,22.917 0 0 1 1.927,-0.25115 z m -0.4346,0.34727 a 80.169,23.319 0 0 0 -1.9606,0.25528 80.169,23.319 0 0 1 1.9606,-0.25528 z m -6.7453,0.59841 a 78.788,22.917 0 0 0 -1.6748,0.27957 78.788,22.917 0 0 1 1.6748,-0.27957 z m -0.56017,0.3638 a 80.169,23.319 0 0 0 -1.7043,0.28422 80.169,23.319 0 0 1 1.7043,-0.28422 z m -6.2709,0.78807 a 78.788,22.917 0 0 0 -1.2955,0.26975 78.788,22.917 0 0 1 1.2955,-0.26975 z m -0.68006,0.38396 a 80.169,23.319 0 0 0 -1.3183,0.2744 80.169,23.319 0 0 1 1.3183,-0.2744 z m -5.7185,0.96066 a 78.788,22.917 0 0 0 -0.97875,0.25012 78.788,22.917 0 0 1 0.97875,-0.25012 z m -0.7922,0.40773 a 80.169,23.319 0 0 0 -0.9958,0.25425 80.169,23.319 0 0 1 0.9958,-0.25425 z m -5.1051,1.1147 a 78.788,22.917 0 0 0 -0.75551,0.23616 78.788,22.917 0 0 1 0.75551,-0.23616 z m -0.89555,0.43408 a 80.169,23.319 0 0 0 -0.76895,0.2403 80.169,23.319 0 0 1 0.76895,-0.2403 z m -4.4566,1.2542 a 78.788,22.917 0 0 0 -0.47646,0.18241 78.788,22.917 0 0 1 0.47646,-0.18241 z m -0.98909,0.46405 a 80.169,23.319 0 0 0 -0.48524,0.18552 80.169,23.319 0 0 1 0.48524,-0.18552 z m -3.7533,1.3715 a 78.788,22.917 0 0 0 -0.25528,0.12145 78.788,22.917 0 0 1 0.25528,-0.12145 z m -1.0723,0.4961 a 80.169,23.319 0 0 0 -0.25993,0.12351 80.169,23.319 0 0 1 0.25993,-0.12351 z m -3.0112,1.4666 a 78.788,22.917 0 0 0 -0.13281,0.0796 78.788,22.917 0 0 1 0.13281,-0.0796 z m -1.1441,0.5302 a 80.169,23.319 0 0 0 -0.13488,0.0811 80.169,23.319 0 0 1 0.13488,-0.0811 z m -2.2443,1.541 a 78.788,22.917 0 0 0 -0.04444,0.0351 78.788,22.917 0 0 1 0.04444,-0.0351 z m -1.2035,0.56689 a 80.169,23.319 0 0 0 -0.04496,0.0356 80.169,23.319 0 0 1 0.04496,-0.0356 z m -1.4542,1.5901 a 78.788,22.917 0 0 0 -0.02015,0.0238 78.788,22.917 0 0 1 0.02015,-0.0238 z m -1.2501,0.60462 a 80.169,23.319 0 0 0 -0.02067,0.0238 80.169,23.319 0 0 1 0.02067,-0.0238 z"
             style="opacity:0.269;fill:#2e1809;fill-rule:evenodd;paint-order:normal"
             id="path879"
             inkscape:connector-curvature="0" />
        </g>
        <g
           transform="translate(116.37,-58.274)"
           id="g885">
          <path
             d="m 57.436,177.31 c 1.2607,0.83814 2.4145,1.6986 3.4716,2.5756 8.6692,3.9506 13.337,8.5489 13.348,13.267 6.24e-4,13.687 -38.343,24.782 -85.642,24.782 -47.299,-4e-5 -85.642,-11.095 -85.642,-24.782 0.02148,-4.7078 4.6786,-9.2952 13.32,-13.238 1.053,-0.876 2.2022,-1.7356 3.4582,-2.573 -12.714,4.5744 -19.662,10.277 -19.689,16.159 -5.29e-4,14.225 39.646,25.758 88.552,25.758 48.907,-2e-5 88.553,-11.532 88.552,-25.758 -0.01363,-5.8946 -6.9778,-11.61 -19.73,-16.191 z"
             style="fill:#a76d48;fill-rule:evenodd;paint-order:normal"
             id="path883"
             inkscape:connector-curvature="0" />
        </g>
      </g>
      <path
         d="m 120.72,112.49 a 6.0358,1.5677 0 0 0 -1.2322,0.94581 6.0358,1.5677 0 0 0 6.0358,1.5677 6.0358,1.5677 0 0 0 6.0358,-1.5677 6.0358,1.5677 0 0 0 -1.008,-0.86565 v 0.74297 a 4.9177,1.2276 0 0 1 0.002,0.0121 4.9177,1.2276 0 0 1 -0.002,0.017 v 0.0174 h -0.003 a 4.9177,1.2276 0 0 1 -4.913,1.1928 4.9177,1.2276 0 0 1 -4.9105,-1.1928 h -0.005 v -0.0247 a 4.9177,1.2276 0 0 1 -0.002,-0.01 4.9177,1.2276 0 0 1 0.002,-0.0142 z"
         style="fill:#603f2a;fill-rule:evenodd;paint-order:normal"
         id="path889"
         inkscape:connector-curvature="0" />
      <g
         id="g901"
         style="fill-rule:evenodd">
        <g
           transform="rotate(45,-182.61,457.29)"
           id="g895">
          <path
             d="m -221.79,-29.096 h 6.361 v 16.557 h -6.361 z"
             style="fill:#999999;paint-order:normal"
             id="path891"
             inkscape:connector-curvature="0" />
          <path
             transform="matrix(0.26458,0,0,0.26458,-81.571,9.3544)"
             d="m -517.96,-663.16 a 7.1945,7.1945 0 0 0 -7.1953,7.1953 7.1945,7.1945 0 0 0 0.008,0.22656 v 11.002 h 3.8379 v 7.8574 h -3.8555 c -0.27326,0.002 -0.49394,0.22298 -0.49609,0.49609 l -8.9922,255.02 -0.0723,261.17 c -0.004,0.2807 0.22106,0.51091 0.50196,0.50976 h 32.525 c 0.28082,0.001 0.50093,-0.2197 0.50195,-0.50976 l 0.0156,-260.56 -9.084,-255.62 c -0.002,-0.27553 -0.22673,-0.49719 -0.50195,-0.49609 h -3.8457 v -7.8574 h 3.8457 v -11.281 h -0.002 a 7.1945,7.1945 0 0 0 -7.1914,-7.1426 z"
             style="fill:#333333;paint-order:normal"
             id="path893"
             inkscape:connector-curvature="0" />
        </g>
        <path
           d="m 125.63,94.132 a 5.132,5.131 0 0 0 -5.131,5.1134 h -10e-4 v 13.953 a 5.1332,1.5669 0 0 0 -0.003,0.0155 5.1332,1.5669 0 0 0 0.003,0.0222 v 0.0222 h 0.003 a 5.1332,1.5669 0 0 0 5.1284,1.5224 5.1332,1.5669 0 0 0 5.1258,-1.5224 h 0.005 v -0.0315 a 5.1332,1.5669 0 0 0 0.002,-0.0129 5.1332,1.5669 0 0 0 -0.002,-0.0176 v -13.892 a 5.132,5.131 0 0 0 0.002,-0.04186 5.132,5.131 0 0 0 -5.132,-5.131 z"
           style="fill:#4d4d4d;paint-order:normal"
           id="path897"
           inkscape:connector-curvature="0" />
        <circle
           cx="125.6"
           cy="98.216003"
           r="1.7859"
           style="fill:#d3bc5f;paint-order:normal"
           id="circle899" />
      </g>
      <path
         d="m 79.45,112.49 a 6.0358,1.5677 0 0 0 -1.2322,0.94581 6.0358,1.5677 0 0 0 6.0358,1.5677 6.0358,1.5677 0 0 0 6.0358,-1.5677 6.0358,1.5677 0 0 0 -1.0079,-0.86565 v 0.74297 a 4.9177,1.2276 0 0 1 0.0025,0.0121 4.9177,1.2276 0 0 1 -0.0025,0.017 v 0.0174 h -0.003 a 4.9177,1.2276 0 0 1 -4.913,1.1928 4.9177,1.2276 0 0 1 -4.9105,-1.1928 H 79.45 v -0.0247 a 4.9177,1.2276 0 0 1 -0.002,-0.01 4.9177,1.2276 0 0 1 0.002,-0.0142 z"
         style="fill:#603f2a;fill-rule:evenodd;paint-order:normal"
         id="path903"
         inkscape:connector-curvature="0" />
      <g
         transform="matrix(0.41333,0,0,0.41333,311.16,101.19)"
         id="g917"
         style="fill:#4d4d4d;fill-rule:evenodd">
        <path
           transform="scale(0.26458)"
           d="m -1885.1,-417.29 a 300,300 0 0 0 -212,88 l 106,106 a 150,150 0 0 1 106,-44 150,150 0 0 1 106,44 l 106,-106 a 300,300 0 0 0 -212,-88 z"
           style="paint-order:normal"
           id="path905"
           inkscape:connector-curvature="0" />
        <path
           transform="scale(0.26458)"
           d="m -1885.1,-642.29 a 525,525 0 0 0 -371,154 l 106,106 a 375,375 0 0 1 265,-110 375,375 0 0 1 265,110 l 106,-106 a 525,525 0 0 0 -371,-154 z"
           style="paint-order:normal"
           id="path907"
           inkscape:connector-curvature="0" />
        <path
           transform="scale(0.26458)"
           d="m -1885.1,-867.29 a 750,750 0 0 0 -530,220 l 106,106 a 600,600 0 0 1 424,-176 600,600 0 0 1 424,176 l 106,-106 a 750,750 0 0 0 -530,-220 z"
           style="paint-order:normal"
           id="path909"
           inkscape:connector-curvature="0" />
        <path
           transform="scale(0.26458)"
           d="m -1885.1,-1317.3 a 1200,1200 0 0 0 -848,352 l 106,106 a 1050,1050 0 0 1 742,-308 1050,1050 0 0 1 742,308 l 106,-106 a 1200,1200 0 0 0 -848,-352 z"
           style="paint-order:normal"
           id="path911"
           inkscape:connector-curvature="0" />
        <path
           transform="scale(0.26458)"
           d="m -1885.1,-1092.3 a 975,975 0 0 0 -689,286 l 106,106 a 825,825 0 0 1 583,-242 825,825 0 0 1 583,242 l 106,-106 a 975,975 0 0 0 -689,-286 z"
           style="paint-order:normal"
           id="path913"
           inkscape:connector-curvature="0" />
        <circle
           cx="-498.78"
           cy="-31.033001"
           r="19.844"
           style="paint-order:normal"
           id="circle915" />
      </g>
      <g
         transform="matrix(-1,0,0,1,209.97,-0.034094)"
         id="g929"
         style="fill-rule:evenodd">
        <g
           transform="rotate(45,-182.61,457.29)"
           id="g923">
          <path
             d="m -221.79,-29.096 h 6.361 v 16.557 h -6.361 z"
             style="fill:#999999;paint-order:normal"
             id="path919"
             inkscape:connector-curvature="0" />
          <path
             transform="matrix(0.26458,0,0,0.26458,-81.571,9.3544)"
             d="m -517.96,-663.16 a 7.1945,7.1945 0 0 0 -7.1953,7.1953 7.1945,7.1945 0 0 0 0.008,0.22656 v 11.002 h 3.8379 v 7.8574 h -3.8555 c -0.27326,0.002 -0.49394,0.22298 -0.49609,0.49609 l -8.9922,255.02 -0.0723,261.17 c -0.004,0.2807 0.22106,0.51091 0.50196,0.50976 h 32.525 c 0.28082,0.001 0.50093,-0.2197 0.50195,-0.50976 l 0.0156,-260.56 -9.084,-255.62 c -0.002,-0.27553 -0.22673,-0.49719 -0.50195,-0.49609 h -3.8457 v -7.8574 h 3.8457 v -11.281 h -0.002 a 7.1945,7.1945 0 0 0 -7.1914,-7.1426 z"
             style="fill:#333333;paint-order:normal"
             id="path921"
             inkscape:connector-curvature="0" />
        </g>
        <path
           d="m 125.63,94.132 a 5.132,5.131 0 0 0 -5.131,5.1134 h -10e-4 v 13.953 a 5.1332,1.5669 0 0 0 -0.003,0.0155 5.1332,1.5669 0 0 0 0.003,0.0222 v 0.0222 h 0.003 a 5.1332,1.5669 0 0 0 5.1284,1.5224 5.1332,1.5669 0 0 0 5.1258,-1.5224 h 0.005 v -0.0315 a 5.1332,1.5669 0 0 0 0.002,-0.0129 5.1332,1.5669 0 0 0 -0.002,-0.0176 v -13.892 a 5.132,5.131 0 0 0 0.002,-0.04186 5.132,5.131 0 0 0 -5.132,-5.131 z"
           style="fill:#4d4d4d;paint-order:normal"
           id="path925"
           inkscape:connector-curvature="0" />
        <circle
           cx="125.6"
           cy="98.216003"
           r="1.7859"
           style="fill:#d3bc5f;paint-order:normal"
           id="circle927" />
      </g>
    </g>
    <circle
       cx="1259.9"
       cy="-363.29999"
       r="19.844"
       style="fill:#333333;fill-rule:evenodd;paint-order:normal"
       id="circle933" />
    <g
       transform="translate(1760.3,-333.46)"
       id="g937">
      <path
         transform="matrix(0.26458,0,0,0.26458,-1.6686,1.1887)"
         d="m -2737.1,-969.29 -23,23 852,852 23,-23 z m 852,852 23,23 852,-852 -23,-23 z"
         style="opacity:0.47300002;fill-rule:evenodd;paint-order:normal"
         id="path935"
         inkscape:connector-curvature="0" />
    </g>
    <g
       id="g949"
       style="fill:#999999;fill-rule:evenodd">
      <path
         d="m -1901.2,-172.93 a 138.91,138.91 0 0 0 -138.91,138.91 138.91,138.91 0 0 0 138.91,138.91 138.91,138.91 0 0 0 138.91,-138.91 138.91,138.91 0 0 0 -138.91,-138.91 z m 0,39.688 a 99.219,99.219 0 0 1 99.219,99.219 99.219,99.219 0 0 1 -99.219,99.219 99.219,99.219 0 0 1 -99.219,-99.219 99.219,99.219 0 0 1 99.219,-99.219 z"
         style="opacity:0.47300002;paint-order:normal"
         id="path939"
         inkscape:connector-curvature="0" />
      <path
         d="m -1901.2,-232.46 a 198.44,198.44 0 0 0 -198.44,198.44 198.44,198.44 0 0 0 198.44,198.44 198.44,198.44 0 0 0 198.44,-198.44 198.44,198.44 0 0 0 -198.44,-198.44 z m 0,39.688 a 158.75,158.75 0 0 1 158.75,158.75 158.75,158.75 0 0 1 -158.75,158.75 158.75,158.75 0 0 1 -158.75,-158.75 158.75,158.75 0 0 1 158.75,-158.75 z"
         style="opacity:0.47300002;paint-order:normal"
         id="path941"
         inkscape:connector-curvature="0" />
      <path
         d="m -1901.2,-351.53 a 317.5,317.5 0 0 0 -317.5,317.5 317.5,317.5 0 0 0 317.5,317.5 317.5,317.5 0 0 0 317.5,-317.5 317.5,317.5 0 0 0 -317.5,-317.5 z m 0,39.688 a 277.81,277.81 0 0 1 277.81,277.81 277.81,277.81 0 0 1 -277.81,277.81 277.81,277.81 0 0 1 -277.81,-277.81 277.81,277.81 0 0 1 277.81,-277.81 z"
         style="opacity:0.47300002;paint-order:normal"
         id="path943"
         inkscape:connector-curvature="0" />
      <path
         d="m -1901.2,-291.99 a 257.97,257.97 0 0 0 -257.97,257.97 257.97,257.97 0 0 0 257.97,257.97 257.97,257.97 0 0 0 257.97,-257.97 257.97,257.97 0 0 0 -257.97,-257.97 z m 0,39.688 a 218.28,218.28 0 0 1 218.28,218.28 218.28,218.28 0 0 1 -218.28,218.28 218.28,218.28 0 0 1 -218.28,-218.28 218.28,218.28 0 0 1 218.28,-218.28 z"
         style="opacity:0.47300002;paint-order:normal"
         id="path945"
         inkscape:connector-curvature="0" />
      <path
         d="m -1901.2,-113.4 a 79.375,79.375 0 0 0 -79.375,79.375 79.375,79.375 0 0 0 79.375,79.375 79.375,79.375 0 0 0 79.375,-79.375 79.375,79.375 0 0 0 -79.375,-79.375 z m 0,39.688 a 39.687,39.687 0 0 1 39.688,39.687 39.687,39.687 0 0 1 -39.688,39.687 39.687,39.687 0 0 1 -39.688,-39.687 39.687,39.687 0 0 1 39.688,-39.687 z"
         style="opacity:0.47300002;paint-order:normal"
         id="path947"
         inkscape:connector-curvature="0" />
    </g>
    <circle
       cx="-1901.2"
       cy="-34.026001"
       r="19.844"
       style="fill:#333333;fill-rule:evenodd;paint-order:normal"
       id="circle951" />
    <g
       transform="translate(-1400.7,-4.1823)"
       id="g955">
      <path
         transform="matrix(0.26458,0,0,0.26458,-1.6686,1.1887)"
         d="m -2737.1,-969.29 -23,23 852,852 23,-23 z m 852,852 23,23 852,-852 -23,-23 z"
         style="opacity:0.47300002;fill-rule:evenodd;paint-order:normal"
         id="path953"
         inkscape:connector-curvature="0" />
    </g>
    <g
       transform="translate(-1177.9,-709.44)"
       id="g969"
       style="fill:#333333;fill-rule:evenodd">
      <path
         transform="scale(0.26458)"
         d="m -1885.1,-417.29 a 300,300 0 0 0 -212,88 l 106,106 a 150,150 0 0 1 106,-44 150,150 0 0 1 106,44 l 106,-106 a 300,300 0 0 0 -212,-88 z"
         style="paint-order:normal"
         id="path957"
         inkscape:connector-curvature="0" />
      <path
         transform="scale(0.26458)"
         d="m -1885.1,-642.29 a 525,525 0 0 0 -371,154 l 106,106 a 375,375 0 0 1 265,-110 375,375 0 0 1 265,110 l 106,-106 a 525,525 0 0 0 -371,-154 z"
         style="paint-order:normal"
         id="path959"
         inkscape:connector-curvature="0" />
      <path
         transform="scale(0.26458)"
         d="m -1885.1,-867.29 a 750,750 0 0 0 -530,220 l 106,106 a 600,600 0 0 1 424,-176 600,600 0 0 1 424,176 l 106,-106 a 750,750 0 0 0 -530,-220 z"
         style="paint-order:normal"
         id="path961"
         inkscape:connector-curvature="0" />
      <path
         transform="scale(0.26458)"
         d="m -1885.1,-1317.3 a 1200,1200 0 0 0 -848,352 l 106,106 a 1050,1050 0 0 1 742,-308 1050,1050 0 0 1 742,308 l 106,-106 a 1200,1200 0 0 0 -848,-352 z"
         style="paint-order:normal"
         id="path963"
         inkscape:connector-curvature="0" />
      <path
         transform="scale(0.26458)"
         d="m -1885.1,-1092.3 a 975,975 0 0 0 -689,286 l 106,106 a 825,825 0 0 1 583,-242 825,825 0 0 1 583,242 l 106,-106 a 975,975 0 0 0 -689,-286 z"
         style="paint-order:normal"
         id="path965"
         inkscape:connector-curvature="0" />
      <circle
         cx="-498.78"
         cy="-31.033001"
         r="19.844"
         style="paint-order:normal"
         id="circle967" />
    </g>
  </g>
  <g
     id="g996"
     transform="matrix(2.0748078,0,0,2.0748078,12.244713,-1065.3724)">
    <ellipse
       id="ellipse973"
       style="opacity:0.05700001;fill-rule:evenodd;stroke-width:1.76380002;paint-order:normal"
       ry="59.267208"
       rx="201.60234"
       cy="880.27582"
       cx="235.11105" />
    <g
       transform="matrix(1.7638,0,0,1.7638,49.912036,594.89297)"
       id="g1021">
      <ellipse
         id="ellipse975"
         style="fill-opacity:0;paint-order:normal"
         ry="15.346"
         rx="70.776001"
         cy="178.21001"
         cx="98.244003" />
      <g
         style="fill-rule:evenodd"
         id="g989">
        <path
           inkscape:connector-curvature="0"
           id="path977"
           style="fill-opacity:0.49468001;paint-order:normal"
           d="m 18.258,135.84 0.08578,0.25683 A 86.783,25.243 0 0 1 18.31277,135.84 Z" />
        <path
           inkscape:connector-curvature="0"
           id="path979"
           style="fill-opacity:0.49468001;paint-order:normal"
           d="m 191.63,135.84 a 86.783,25.243 0 0 1 -0.10387,0.60255 l 0.20153,-0.60255 z" />
        <path
           inkscape:connector-curvature="0"
           id="path981"
           style="fill:#4d4d4d;paint-order:normal"
           d="m 190.85,138.42 c -5.9129,12.48 -42.557,21.782 -85.869,21.797 -43.247,-0.0138 -79.859,-9.2871 -85.851,-21.745 l 8.2631,24.72 c 0.56844,1.419 -0.30313,-0.74533 0.56844,1.419 5.068,11.251 38.008,19.669 77.02,19.683 39.016,-0.0121 71.962,-8.4307 77.031,-19.683 l 0.39945,-0.94723 z" />
        <path
           inkscape:connector-curvature="0"
           id="path983"
           style="opacity:0.11700003;fill:#333333;paint-order:normal"
           d="m 190.86,138.42 c -5.9129,12.48 -42.557,21.782 -85.869,21.797 -43.247,-0.0138 -79.859,-9.2871 -85.851,-21.745 l 3.0727,9.1917 a 89.826,26.82 0 0 0 82.787,16.479 89.826,26.82 0 0 0 82.736,-16.376 89.826,26.82 0 0 0 5.2e-4,-5.2e-4 z" />
        <ellipse
           id="ellipse985"
           style="fill:#333333;fill-opacity:0.49468001;paint-order:normal"
           ry="25.243"
           rx="86.782997"
           cy="134.98"
           cx="104.99" />
        <ellipse
           id="ellipse987"
           style="fill:#666666;stroke:#4d4d4d;stroke-width:0.52916998;stroke-linecap:round;stroke-linejoin:round;paint-order:normal"
           ry="26.82"
           rx="89.825996"
           cy="135.52"
           cx="105" />
      </g>
      <g
         style="fill:#d38d5f;fill-rule:evenodd"
         id="g995"
         transform="translate(116.37,12.445)">
        <path
           inkscape:connector-curvature="0"
           id="path991"
           style="paint-order:normal"
           d="m -65.211,373.18 a 303,88.134 0 0 0 -13.143,0.46289 303,88.134 0 0 1 13.143,-0.46289 z m -30.311,1.0996 a 303,88.134 0 0 0 -11.082,0.72461 303,88.134 0 0 1 11.082,-0.72461 z m -29.566,1.9648 a 303,88.134 0 0 0 -9.5312,0.91993 303,88.134 0 0 1 9.5312,-0.91993 z m -28.844,2.8262 a 303,88.134 0 0 0 -7.4102,0.96484 303,88.134 0 0 1 7.4102,-0.96484 z m -27.611,3.6367 a 303,88.134 0 0 0 -6.4414,1.0742 303,88.134 0 0 1 6.4414,-1.0742 z m -26.271,4.4297 a 303,88.134 0 0 0 -4.9824,1.0371 303,88.134 0 0 1 4.9824,-1.0371 z m -24.607,5.1719 a 303,88.134 0 0 0 -3.7637,0.96093 303,88.134 0 0 1 3.7637,-0.96093 z m -22.68,5.8535 a 303,88.134 0 0 0 -2.9062,0.90821 303,88.134 0 0 1 2.9062,-0.90821 z m 472.18,4.707 a 303,120.13 0 0 1 41.348,49.93 303,88.134 0 0 1 1.6055,8.2637 303,88.134 0 0 1 -303,88.135 303,88.134 0 0 1 -303,-88.135 303,88.134 0 0 1 1.4219,-8.2656 303,88.134 0 0 1 0.33789,-1.0059 303,120.13 0 0 1 40.9,-48.803 334.69,97.35 0 0 0 -74.414,61.074 334.69,97.35 0 0 0 334.69,97.352 334.69,97.35 0 0 0 334.69,-97.352 334.69,97.35 0 0 0 -74.57,-61.193 z m -492.76,1.7871 a 303,88.134 0 0 0 -1.834,0.70118 303,88.134 0 0 1 1.834,-0.70118 z m -18.238,7.0586 a 303,88.134 0 0 0 -0.98242,0.46679 303,88.134 0 0 1 0.98242,-0.46679 z m -15.705,7.5469 a 303,88.134 0 0 0 -0.50977,0.30664 303,88.134 0 0 1 0.50977,-0.30664 z m -13.031,7.9668 a 303,88.134 0 0 0 -0.16992,0.13477 303,88.134 0 0 1 0.16992,-0.13477 z m -10.221,8.2949 a 303,88.134 0 0 0 -0.0781,0.0899 303,88.134 0 0 1 0.0781,-0.0899 z"
           transform="scale(0.26458)" />
        <path
           inkscape:connector-curvature="0"
           id="path993"
           style="paint-order:normal"
           d="m -42.967,343.93 a 303,120.13 0 0 0 -301.24,107.86 303,88.134 0 0 0 -0.33789,1.0059 303,88.134 0 0 0 -1.4219,8.2656 303,88.134 0 0 0 303,88.135 303,88.134 0 0 0 303,-88.135 303,88.134 0 0 0 -1.6055,-8.2637 303,120.13 0 0 0 -301.39,-108.87 z m -22.244,29.25 a 303,88.134 0 0 0 -13.143,0.46289 303,88.134 0 0 1 13.143,-0.46289 z m -30.311,1.0996 a 303,88.134 0 0 0 -11.082,0.72461 303,88.134 0 0 1 11.082,-0.72461 z m -29.566,1.9648 a 303,88.134 0 0 0 -9.5312,0.91993 303,88.134 0 0 1 9.5312,-0.91993 z m -28.844,2.8262 a 303,88.134 0 0 0 -7.4102,0.96484 303,88.134 0 0 1 7.4102,-0.96484 z m -27.611,3.6367 a 303,88.134 0 0 0 -6.4414,1.0742 303,88.134 0 0 1 6.4414,-1.0742 z m -26.271,4.4297 a 303,88.134 0 0 0 -4.9824,1.0371 303,88.134 0 0 1 4.9824,-1.0371 z m -24.607,5.1719 a 303,88.134 0 0 0 -3.7637,0.96093 303,88.134 0 0 1 3.7637,-0.96093 z m -22.68,5.8535 a 303,88.134 0 0 0 -2.9062,0.90821 303,88.134 0 0 1 2.9062,-0.90821 z m -20.582,6.4941 a 303,88.134 0 0 0 -1.834,0.70118 303,88.134 0 0 1 1.834,-0.70118 z m -18.238,7.0586 a 303,88.134 0 0 0 -0.98242,0.46679 303,88.134 0 0 1 0.98242,-0.46679 z m -15.705,7.5469 a 303,88.134 0 0 0 -0.50977,0.30664 303,88.134 0 0 1 0.50977,-0.30664 z m -13.031,7.9668 a 303,88.134 0 0 0 -0.16992,0.13477 303,88.134 0 0 1 0.16992,-0.13477 z m -10.221,8.2949 a 303,88.134 0 0 0 -0.0781,0.0899 303,88.134 0 0 1 0.0781,-0.0899 z"
           transform="scale(0.26458)" />
      </g>
      <g
         style="fill:#603f2a;fill-rule:evenodd;stroke:#a76d48;stroke-width:1.48440003;stroke-linecap:round;stroke-linejoin:round"
         id="g1011">
        <rect
           id="rect997"
           style="paint-order:normal"
           height="14.403"
           width="14.403"
           y="-442.51999"
           x="442.25"
           transform="matrix(-0.81725,0.57628,-0.9479,0.31856,0,0)" />
        <rect
           id="rect999"
           style="paint-order:normal"
           height="14.403"
           width="14.403"
           y="-446.26001"
           x="480.60999"
           transform="matrix(-0.60999,0.79241,-0.81109,0.58492,0,0)" />
        <rect
           id="rect1001"
           style="paint-order:normal"
           height="14.403"
           width="14.403"
           y="-382.57001"
           x="468.23999"
           transform="matrix(-0.21457,0.97671,-0.48487,0.87459,0,0)" />
        <rect
           id="rect1003"
           style="paint-order:normal"
           height="14.403"
           width="14.403"
           y="-295.60999"
           x="422.48001"
           transform="matrix(0.15331,0.98818,-0.13562,0.99076,0,0)" />
        <rect
           id="rect1005"
           style="paint-order:normal"
           height="14.403"
           width="14.403"
           y="-18.184"
           x="208.14"
           transform="matrix(0.81725,0.57628,0.9479,0.31856,0,0)" />
        <rect
           id="rect1007"
           style="paint-order:normal"
           height="14.403"
           width="14.403"
           y="137.7"
           x="49.887001"
           transform="matrix(0.60999,0.79241,0.81109,0.58492,0,0)" />
        <rect
           id="rect1009"
           style="paint-order:normal"
           height="14.403"
           width="14.403"
           y="337.70999"
           x="-176.45"
           transform="matrix(0.21457,0.97671,0.48487,0.87459,0,0)" />
      </g>
      <g
         style="fill:#2e1809"
         id="g1015"
         transform="translate(116.37,-64.822)">
        <path
           inkscape:connector-curvature="0"
           id="path1013"
           style="opacity:0.269;fill:#2e1809;fill-rule:evenodd;paint-order:normal"
           d="m 38.435,175.17 a 78.788,31.238 0 0 1 28.496,21.212 78.788,22.917 0 0 1 0.41754,2.1487 78.788,22.917 0 0 1 -78.788,22.917 78.788,22.917 0 0 1 -78.788,-22.917 78.788,22.917 0 0 1 0.37,-2.1492 78.788,22.917 0 0 1 0.08785,-0.26149 78.788,31.238 0 0 1 21.661,-18.485 80.169,31.785 0 0 0 -22.962,19.164 80.169,23.319 0 0 0 -0.0894,0.26614 80.169,23.319 0 0 0 -0.37621,2.187 80.169,23.319 0 0 0 80.169,23.319 80.169,23.319 0 0 0 80.169,-23.319 80.169,23.319 0 0 0 -0.42478,-2.1864 80.169,31.785 0 0 0 -29.941,-21.895 z m -55.659,0.50901 a 78.788,22.917 0 0 0 -3.4174,0.12041 78.788,22.917 0 0 1 3.4174,-0.12041 z m -7.8812,0.28577 a 78.788,22.917 0 0 0 -2.882,0.18862 78.788,22.917 0 0 1 2.882,-0.18862 z m 7.8512,0.0346 a 80.169,23.319 0 0 0 -3.4773,0.12247 80.169,23.319 0 0 1 3.4773,-0.12247 z m -8.0197,0.29094 a 80.169,23.319 0 0 0 -2.9321,0.19172 80.169,23.319 0 0 1 2.9321,-0.19172 z m -7.52,0.18551 a 78.788,22.917 0 0 0 -2.4784,0.23927 78.788,22.917 0 0 1 2.4784,-0.23927 z m -0.30282,0.33435 a 80.169,23.319 0 0 0 -2.5218,0.2434 80.169,23.319 0 0 1 2.5218,-0.2434 z m -7.197,0.40049 a 78.788,22.917 0 0 0 -1.927,0.25115 78.788,22.917 0 0 1 1.927,-0.25115 z m -0.4346,0.34727 a 80.169,23.319 0 0 0 -1.9606,0.25528 80.169,23.319 0 0 1 1.9606,-0.25528 z m -6.7453,0.59841 a 78.788,22.917 0 0 0 -1.6748,0.27957 78.788,22.917 0 0 1 1.6748,-0.27957 z m -0.56017,0.3638 a 80.169,23.319 0 0 0 -1.7043,0.28422 80.169,23.319 0 0 1 1.7043,-0.28422 z m -6.2709,0.78807 a 78.788,22.917 0 0 0 -1.2955,0.26975 78.788,22.917 0 0 1 1.2955,-0.26975 z m -0.68006,0.38396 a 80.169,23.319 0 0 0 -1.3183,0.2744 80.169,23.319 0 0 1 1.3183,-0.2744 z m -5.7185,0.96066 a 78.788,22.917 0 0 0 -0.97875,0.25012 78.788,22.917 0 0 1 0.97875,-0.25012 z m -0.7922,0.40773 a 80.169,23.319 0 0 0 -0.9958,0.25425 80.169,23.319 0 0 1 0.9958,-0.25425 z m -5.1051,1.1147 a 78.788,22.917 0 0 0 -0.75551,0.23616 78.788,22.917 0 0 1 0.75551,-0.23616 z m -0.89555,0.43408 a 80.169,23.319 0 0 0 -0.76895,0.2403 80.169,23.319 0 0 1 0.76895,-0.2403 z m -4.4566,1.2542 a 78.788,22.917 0 0 0 -0.47646,0.18241 78.788,22.917 0 0 1 0.47646,-0.18241 z m -0.98909,0.46405 a 80.169,23.319 0 0 0 -0.48524,0.18552 80.169,23.319 0 0 1 0.48524,-0.18552 z m -3.7533,1.3715 a 78.788,22.917 0 0 0 -0.25528,0.12145 78.788,22.917 0 0 1 0.25528,-0.12145 z m -1.0723,0.4961 a 80.169,23.319 0 0 0 -0.25993,0.12351 80.169,23.319 0 0 1 0.25993,-0.12351 z m -3.0112,1.4666 a 78.788,22.917 0 0 0 -0.13281,0.0796 78.788,22.917 0 0 1 0.13281,-0.0796 z m -1.1441,0.5302 a 80.169,23.319 0 0 0 -0.13488,0.0811 80.169,23.319 0 0 1 0.13488,-0.0811 z m -2.2443,1.541 a 78.788,22.917 0 0 0 -0.04444,0.0351 78.788,22.917 0 0 1 0.04444,-0.0351 z m -1.2035,0.56689 a 80.169,23.319 0 0 0 -0.04496,0.0356 80.169,23.319 0 0 1 0.04496,-0.0356 z m -1.4542,1.5901 a 78.788,22.917 0 0 0 -0.02015,0.0238 78.788,22.917 0 0 1 0.02015,-0.0238 z m -1.2501,0.60462 a 80.169,23.319 0 0 0 -0.02067,0.0238 80.169,23.319 0 0 1 0.02067,-0.0238 z" />
      </g>
      <g
         id="g1019"
         transform="translate(116.37,-58.274)">
        <path
           inkscape:connector-curvature="0"
           id="path1017"
           style="fill:#a76d48;fill-rule:evenodd;paint-order:normal"
           d="m 57.436,177.31 c 1.2607,0.83814 2.4145,1.6986 3.4716,2.5756 8.6692,3.9506 13.337,8.5489 13.348,13.267 6.24e-4,13.687 -38.343,24.782 -85.642,24.782 -47.299,-4e-5 -85.642,-11.095 -85.642,-24.782 0.02148,-4.7078 4.6786,-9.2952 13.32,-13.238 1.053,-0.876 2.2022,-1.7356 3.4582,-2.573 -12.714,4.5744 -19.662,10.277 -19.689,16.159 -5.29e-4,14.225 39.646,25.758 88.552,25.758 48.907,-2e-5 88.553,-11.532 88.552,-25.758 -0.01363,-5.8946 -6.9778,-11.61 -19.73,-16.191 z" />
      </g>
    </g>
    <path
       inkscape:connector-curvature="0"
       id="path1023"
       style="fill:#603f2a;fill-rule:evenodd;stroke-width:1.76380002;paint-order:normal"
       d="m 262.83798,793.30283 a 10.645944,2.7651093 0 0 0 -2.17336,1.66822 10.645944,2.7651093 0 0 0 10.64595,2.76511 10.645944,2.7651093 0 0 0 10.64594,-2.76511 10.645944,2.7651093 0 0 0 -1.77791,-1.52683 v 1.31045 a 8.6738393,2.1652409 0 0 1 0.004,0.0213 8.6738393,2.1652409 0 0 1 -0.004,0.03 v 0.0307 h -0.005 a 8.6738393,2.1652409 0 0 1 -8.66555,2.10386 8.6738393,2.1652409 0 0 1 -8.66114,-2.10386 h -0.009 v -0.0436 a 8.6738393,2.1652409 0 0 1 -0.004,-0.0176 8.6738393,2.1652409 0 0 1 0.004,-0.025 z" />
    <g
       transform="matrix(1.7638,0,0,1.7638,49.912036,594.89297)"
       style="fill-rule:evenodd"
       id="g1035">
      <g
         id="g1029"
         transform="rotate(45,-182.61,457.29)">
        <path
           inkscape:connector-curvature="0"
           id="path1025"
           style="fill:#999999;paint-order:normal"
           d="m -221.79,-29.096 h 6.361 v 16.557 h -6.361 z" />
        <path
           inkscape:connector-curvature="0"
           id="path1027"
           style="fill:#333333;paint-order:normal"
           d="m -517.96,-663.16 a 7.1945,7.1945 0 0 0 -7.1953,7.1953 7.1945,7.1945 0 0 0 0.008,0.22656 v 11.002 h 3.8379 v 7.8574 h -3.8555 c -0.27326,0.002 -0.49394,0.22298 -0.49609,0.49609 l -8.9922,255.02 -0.0723,261.17 c -0.004,0.2807 0.22106,0.51091 0.50196,0.50976 h 32.525 c 0.28082,0.001 0.50093,-0.2197 0.50195,-0.50976 l 0.0156,-260.56 -9.084,-255.62 c -0.002,-0.27553 -0.22673,-0.49719 -0.50195,-0.49609 h -3.8457 v -7.8574 h 3.8457 v -11.281 h -0.002 a 7.1945,7.1945 0 0 0 -7.1914,-7.1426 z"
           transform="matrix(0.26458,0,0,0.26458,-81.571,9.3544)" />
      </g>
      <path
         inkscape:connector-curvature="0"
         id="path1031"
         style="fill:#4d4d4d;paint-order:normal"
         d="m 125.63,94.132 a 5.132,5.131 0 0 0 -5.131,5.1134 h -10e-4 v 13.953 a 5.1332,1.5669 0 0 0 -0.003,0.0155 5.1332,1.5669 0 0 0 0.003,0.0222 v 0.0222 h 0.003 a 5.1332,1.5669 0 0 0 5.1284,1.5224 5.1332,1.5669 0 0 0 5.1258,-1.5224 h 0.005 v -0.0315 a 5.1332,1.5669 0 0 0 0.002,-0.0129 5.1332,1.5669 0 0 0 -0.002,-0.0176 v -13.892 a 5.132,5.131 0 0 0 0.002,-0.04186 5.132,5.131 0 0 0 -5.132,-5.131 z" />
      <circle
         id="circle1033"
         style="fill:#d3bc5f;paint-order:normal"
         r="1.7859"
         cy="98.216003"
         cx="125.6" />
    </g>
    <path
       inkscape:connector-curvature="0"
       id="path1037"
       style="fill:#603f2a;fill-rule:evenodd;stroke-width:1.76380002;paint-order:normal"
       d="m 190.04595,793.30283 a 10.645944,2.7651093 0 0 0 -2.17335,1.66822 10.645944,2.7651093 0 0 0 10.64594,2.76511 10.645944,2.7651093 0 0 0 10.64594,-2.76511 10.645944,2.7651093 0 0 0 -1.77773,-1.52683 v 1.31045 a 8.6738393,2.1652409 0 0 1 0.004,0.0213 8.6738393,2.1652409 0 0 1 -0.004,0.03 v 0.0307 h -0.005 a 8.6738393,2.1652409 0 0 1 -8.66555,2.10386 8.6738393,2.1652409 0 0 1 -8.66114,-2.10386 h -0.009 v -0.0436 a 8.6738393,2.1652409 0 0 1 -0.004,-0.0176 8.6738393,2.1652409 0 0 1 0.004,-0.025 z" />
    <g
       style="fill:#4d4d4d;fill-rule:evenodd"
       id="g1051"
       transform="matrix(0.72903145,0,0,0.72903145,598.73605,773.37189)">
      <path
         inkscape:connector-curvature="0"
         id="path1039"
         style="paint-order:normal"
         d="m -1885.1,-417.29 a 300,300 0 0 0 -212,88 l 106,106 a 150,150 0 0 1 106,-44 150,150 0 0 1 106,44 l 106,-106 a 300,300 0 0 0 -212,-88 z"
         transform="scale(0.26458)" />
      <path
         inkscape:connector-curvature="0"
         id="path1041"
         style="paint-order:normal"
         d="m -1885.1,-642.29 a 525,525 0 0 0 -371,154 l 106,106 a 375,375 0 0 1 265,-110 375,375 0 0 1 265,110 l 106,-106 a 525,525 0 0 0 -371,-154 z"
         transform="scale(0.26458)" />
      <path
         inkscape:connector-curvature="0"
         id="path1043"
         style="paint-order:normal"
         d="m -1885.1,-867.29 a 750,750 0 0 0 -530,220 l 106,106 a 600,600 0 0 1 424,-176 600,600 0 0 1 424,176 l 106,-106 a 750,750 0 0 0 -530,-220 z"
         transform="scale(0.26458)" />
      <path
         inkscape:connector-curvature="0"
         id="path1045"
         style="paint-order:normal"
         d="m -1885.1,-1317.3 a 1200,1200 0 0 0 -848,352 l 106,106 a 1050,1050 0 0 1 742,-308 1050,1050 0 0 1 742,308 l 106,-106 a 1200,1200 0 0 0 -848,-352 z"
         transform="scale(0.26458)" />
      <path
         inkscape:connector-curvature="0"
         id="path1047"
         style="paint-order:normal"
         d="m -1885.1,-1092.3 a 975,975 0 0 0 -689,286 l 106,106 a 825,825 0 0 1 583,-242 825,825 0 0 1 583,242 l 106,-106 a 975,975 0 0 0 -689,-286 z"
         transform="scale(0.26458)" />
      <circle
         id="circle1049"
         style="paint-order:normal"
         r="19.844"
         cy="-31.033001"
         cx="-498.78" />
      <g
         id="g1138"
         transform="matrix(1.3716829,0,0,1.3716829,-1320.2814,-693.05635)" />
    </g>
    <g
       style="fill-rule:evenodd"
       id="g1063"
       transform="matrix(-1.7638,0,0,1.7638,420.25713,594.83284)">
      <g
         id="g1057"
         transform="rotate(45,-182.61,457.29)">
        <path
           inkscape:connector-curvature="0"
           id="path1053"
           style="fill:#999999;paint-order:normal"
           d="m -221.79,-29.096 h 6.361 v 16.557 h -6.361 z" />
        <path
           inkscape:connector-curvature="0"
           id="path1055"
           style="fill:#333333;paint-order:normal"
           d="m -517.96,-663.16 a 7.1945,7.1945 0 0 0 -7.1953,7.1953 7.1945,7.1945 0 0 0 0.008,0.22656 v 11.002 h 3.8379 v 7.8574 h -3.8555 c -0.27326,0.002 -0.49394,0.22298 -0.49609,0.49609 l -8.9922,255.02 -0.0723,261.17 c -0.004,0.2807 0.22106,0.51091 0.50196,0.50976 h 32.525 c 0.28082,0.001 0.50093,-0.2197 0.50195,-0.50976 l 0.0156,-260.56 -9.084,-255.62 c -0.002,-0.27553 -0.22673,-0.49719 -0.50195,-0.49609 h -3.8457 v -7.8574 h 3.8457 v -11.281 h -0.002 a 7.1945,7.1945 0 0 0 -7.1914,-7.1426 z"
           transform="matrix(0.26458,0,0,0.26458,-81.571,9.3544)" />
      </g>
      <path
         inkscape:connector-curvature="0"
         id="path1059"
         style="fill:#4d4d4d;paint-order:normal"
         d="m 125.63,94.132 a 5.132,5.131 0 0 0 -5.131,5.1134 h -10e-4 v 13.953 a 5.1332,1.5669 0 0 0 -0.003,0.0155 5.1332,1.5669 0 0 0 0.003,0.0222 v 0.0222 h 0.003 a 5.1332,1.5669 0 0 0 5.1284,1.5224 5.1332,1.5669 0 0 0 5.1258,-1.5224 h 0.005 v -0.0315 a 5.1332,1.5669 0 0 0 0.002,-0.0129 5.1332,1.5669 0 0 0 -0.002,-0.0176 v -13.892 a 5.132,5.131 0 0 0 0.002,-0.04186 5.132,5.131 0 0 0 -5.132,-5.131 z" />
      <circle
         id="circle1061"
         style="fill:#d3bc5f;paint-order:normal"
         r="1.7859"
         cy="98.216003"
         cx="125.6" />
    </g>
    <text
       y="988.86957"
       x="231.74081"
       id="text1089-5"
       style="font-style:normal;font-weight:normal;font-size:40px;line-height:1.25;font-family:sans-serif;letter-spacing:0px;word-spacing:0px;fill:#3771c8;fill-opacity:1;stroke:none"
       xml:space="preserve"><tspan
         id="tspan1085-2"
         style="font-style:normal;font-variant:normal;font-weight:normal;font-stretch:normal;font-size:64px;font-family:'Arial Rounded MT Bold';-inkscape-font-specification:'Arial Rounded MT Bold, Normal';font-variant-ligatures:normal;font-variant-caps:normal;font-variant-numeric:normal;font-feature-settings:normal;text-align:center;writing-mode:lr-tb;text-anchor:middle;fill:#3771c8">IoT Enablement</tspan></text>
  </g>
</svg>
