<?xml version="1.0" encoding="UTF-8" standalone="no"?>
<!-- Created with Inkscape (http://www.inkscape.org/) -->

<svg
   xmlns:dc="http://purl.org/dc/elements/1.1/"
   xmlns:cc="http://creativecommons.org/ns#"
   xmlns:rdf="http://www.w3.org/1999/02/22-rdf-syntax-ns#"
   xmlns:svg="http://www.w3.org/2000/svg"
   xmlns="http://www.w3.org/2000/svg"
   xmlns:sodipodi="http://sodipodi.sourceforge.net/DTD/sodipodi-0.dtd"
   xmlns:inkscape="http://www.inkscape.org/namespaces/inkscape"
   width="1000"
   height="1000"
   version="1.1"
   viewBox="0 0 1000 999.99994"
   id="svg1069"
   sodipodi:docname="logo-curved-text-above.svg"
   inkscape:version="0.92.2 (5c3e80d, 2017-08-06)">
  <defs
     id="defs1073" />
  <sodipodi:namedview
     pagecolor="#ffffff"
     bordercolor="#666666"
     borderopacity="1"
     objecttolerance="10"
     gridtolerance="10"
     guidetolerance="10"
     inkscape:pageopacity="0"
     inkscape:pageshadow="2"
     inkscape:window-width="640"
     inkscape:window-height="480"
     id="namedview1071"
     showgrid="false"
     inkscape:zoom="0.50266061"
     inkscape:cx="-441.34027"
     inkscape:cy="389.13415"
     inkscape:current-layer="g1365"
     units="px"
     fit-margin-top="5"
     fit-margin-left="5"
     fit-margin-right="5"
     fit-margin-bottom="5"
     inkscape:pagecheckerboard="true"
     inkscape:showpageshadow="false"
     showborder="false" />
  <title
     id="title815">IoT Project Logo RC1 with text</title>
  <metadata
     id="metadata817">
    <rdf:RDF>
      <cc:Work
         rdf:about="">
        <dc:format>image/svg+xml</dc:format>
        <dc:type
           rdf:resource="http://purl.org/dc/dcmitype/StillImage" />
        <dc:title>IoT Project Logo RC1 with text</dc:title>
        <dc:creator>
          <cc:Agent>
            <dc:title>Andrew Graham</dc:title>
          </cc:Agent>
        </dc:creator>
        <dc:publisher>
          <cc:Agent>
            <dc:title>AWGM</dc:title>
          </cc:Agent>
        </dc:publisher>
        <dc:subject>
          <rdf:Bag>
            <rdf:li>AWGM</rdf:li>
          </rdf:Bag>
        </dc:subject>
        <dc:description>Logo for IoT Project Team
ICT302</dc:description>
        <dc:date>29/4/18</dc:date>
      </cc:Work>
    </rdf:RDF>
  </metadata>
  <g
     transform="translate(-204.84526,888.58656)"
     display="none"
     id="g971"
     style="display:none">
    <path
       d="m 1577.4,-363.3 a 317.5,317.5 0 0 1 -317.5,317.5 317.5,317.5 0 0 1 -317.5,-317.5 317.5,317.5 0 0 1 317.5,-317.5 317.5,317.5 0 0 1 317.5,317.5 z"
       style="opacity:0.47300002;fill:#999999;fill-rule:evenodd;paint-order:normal"
       id="path819"
       inkscape:connector-curvature="0" />
    <g
       transform="translate(-619.64,-113)"
       id="g837"
       style="fill-rule:evenodd">
      <path
         d="m -221.79,-29.096 h 6.361 v 16.557 h -6.361 z"
         style="fill:#999999;paint-order:normal"
         id="path821"
         inkscape:connector-curvature="0" />
      <g
         id="g831"
         style="fill:#333333">
        <path
           transform="translate(8.7092,3.4933)"
           d="m -229.23,-162.65 c -0.0723,5.7e-4 -0.13069,0.059 -0.13126,0.13126 l -2.3791,67.474 -0.0191,69.101 c -0.001,0.07427 0.0585,0.13518 0.13282,0.13488 h 8.6056 c 0.0743,3.03e-4 0.13255,-0.05813 0.13282,-0.13488 l 0.004,-68.94 -2.4034,-67.634 c -5.7e-4,-0.0729 -0.06,-0.13155 -0.13282,-0.13126 z"
           style="paint-order:normal"
           id="path823"
           inkscape:connector-curvature="0" />
        <rect
           transform="translate(8.7092,3.4933)"
           x="-228.21001"
           y="-165.86"
           width="1.7721"
           height="4.3381"
           style="paint-order:normal"
           id="rect825" />
        <path
           transform="translate(8.7092,3.4933)"
           d="m -229.23,-167.71 h 3.8049 v 2.9848 h -3.8049 z"
           style="stroke:#333333;stroke-width:0.26458001;stroke-linecap:round;stroke-linejoin:round;paint-order:normal"
           id="path827"
           inkscape:connector-curvature="0" />
        <circle
           transform="translate(8.7092,3.4933)"
           cx="-227.32001"
           cy="-167.7"
           r="1.9035"
           style="stroke:#333333;stroke-width:0.26458001;stroke-linecap:round;stroke-linejoin:round;paint-order:normal"
           id="circle829" />
      </g>
      <path
         d="m -218.61,-21.938 a 5.132,5.131 0 0 0 -5.131,5.1134 h -10e-4 v 13.953 a 5.1332,1.5669 0 0 0 -0.003,0.015503 5.1332,1.5669 0 0 0 0.003,0.022221 v 0.022221 h 0.003 a 5.1332,1.5669 0 0 0 5.1284,1.5224 5.1332,1.5669 0 0 0 5.1258,-1.5224 h 0.005 v -0.031523 a 5.1332,1.5669 0 0 0 0.002,-0.012919 5.1332,1.5669 0 0 0 -0.002,-0.01757 v -13.892 a 5.132,5.131 0 0 0 0.002,-0.04186 5.132,5.131 0 0 0 -5.132,-5.131 z"
         style="fill:#4d4d4d;paint-order:normal"
         id="path833"
         inkscape:connector-curvature="0" />
      <circle
         cx="-218.64999"
         cy="-17.854"
         r="1.7859"
         style="fill:#d3bc5f;paint-order:normal"
         id="circle835" />
    </g>
    <g
       id="g931">
      <ellipse
         cx="105"
         cy="161.8"
         rx="114.3"
         ry="33.602001"
         style="opacity:0.05700001;fill-rule:evenodd;paint-order:normal"
         id="ellipse839" />
      <g
         id="g887">
        <ellipse
           cx="98.244003"
           cy="178.21001"
           rx="70.776001"
           ry="15.346"
           style="fill-opacity:0;paint-order:normal"
           id="ellipse841" />
        <g
           id="g855"
           style="fill-rule:evenodd">
          <path
             d="m 18.258,135.84 0.08578,0.25683 A 86.783,25.243 0 0 1 18.31277,135.84 Z"
             style="fill-opacity:0.49468001;paint-order:normal"
             id="path843"
             inkscape:connector-curvature="0" />
          <path
             d="m 191.63,135.84 a 86.783,25.243 0 0 1 -0.10387,0.60255 l 0.20153,-0.60255 z"
             style="fill-opacity:0.49468001;paint-order:normal"
             id="path845"
             inkscape:connector-curvature="0" />
          <path
             d="m 190.85,138.42 c -5.9129,12.48 -42.557,21.782 -85.869,21.797 -43.247,-0.0138 -79.859,-9.2871 -85.851,-21.745 l 8.2631,24.72 c 0.56844,1.419 -0.30313,-0.74533 0.56844,1.419 5.068,11.251 38.008,19.669 77.02,19.683 39.016,-0.0121 71.962,-8.4307 77.031,-19.683 l 0.39945,-0.94723 z"
             style="fill:#4d4d4d;paint-order:normal"
             id="path847"
             inkscape:connector-curvature="0" />
          <path
             d="m 190.86,138.42 c -5.9129,12.48 -42.557,21.782 -85.869,21.797 -43.247,-0.0138 -79.859,-9.2871 -85.851,-21.745 l 3.0727,9.1917 a 89.826,26.82 0 0 0 82.787,16.479 89.826,26.82 0 0 0 82.736,-16.376 89.826,26.82 0 0 0 5.2e-4,-5.2e-4 z"
             style="opacity:0.11700003;fill:#333333;paint-order:normal"
             id="path849"
             inkscape:connector-curvature="0" />
          <ellipse
             cx="104.99"
             cy="134.98"
             rx="86.782997"
             ry="25.243"
             style="fill:#333333;fill-opacity:0.49468001;paint-order:normal"
             id="ellipse851" />
          <ellipse
             cx="105"
             cy="135.52"
             rx="89.825996"
             ry="26.82"
             style="fill:#666666;stroke:#4d4d4d;stroke-width:0.52916998;stroke-linecap:round;stroke-linejoin:round;paint-order:normal"
             id="ellipse853" />
        </g>
        <g
           transform="translate(116.37,12.445)"
           id="g861"
           style="fill:#d38d5f;fill-rule:evenodd">
          <path
             transform="scale(0.26458)"
             d="m -65.211,373.18 a 303,88.134 0 0 0 -13.143,0.46289 303,88.134 0 0 1 13.143,-0.46289 z m -30.311,1.0996 a 303,88.134 0 0 0 -11.082,0.72461 303,88.134 0 0 1 11.082,-0.72461 z m -29.566,1.9648 a 303,88.134 0 0 0 -9.5312,0.91993 303,88.134 0 0 1 9.5312,-0.91993 z m -28.844,2.8262 a 303,88.134 0 0 0 -7.4102,0.96484 303,88.134 0 0 1 7.4102,-0.96484 z m -27.611,3.6367 a 303,88.134 0 0 0 -6.4414,1.0742 303,88.134 0 0 1 6.4414,-1.0742 z m -26.271,4.4297 a 303,88.134 0 0 0 -4.9824,1.0371 303,88.134 0 0 1 4.9824,-1.0371 z m -24.607,5.1719 a 303,88.134 0 0 0 -3.7637,0.96093 303,88.134 0 0 1 3.7637,-0.96093 z m -22.68,5.8535 a 303,88.134 0 0 0 -2.9062,0.90821 303,88.134 0 0 1 2.9062,-0.90821 z m 472.18,4.707 a 303,120.13 0 0 1 41.348,49.93 303,88.134 0 0 1 1.6055,8.2637 303,88.134 0 0 1 -303,88.135 303,88.134 0 0 1 -303,-88.135 303,88.134 0 0 1 1.4219,-8.2656 303,88.134 0 0 1 0.33789,-1.0059 303,120.13 0 0 1 40.9,-48.803 334.69,97.35 0 0 0 -74.414,61.074 334.69,97.35 0 0 0 334.69,97.352 334.69,97.35 0 0 0 334.69,-97.352 334.69,97.35 0 0 0 -74.57,-61.193 z m -492.76,1.7871 a 303,88.134 0 0 0 -1.834,0.70118 303,88.134 0 0 1 1.834,-0.70118 z m -18.238,7.0586 a 303,88.134 0 0 0 -0.98242,0.46679 303,88.134 0 0 1 0.98242,-0.46679 z m -15.705,7.5469 a 303,88.134 0 0 0 -0.50977,0.30664 303,88.134 0 0 1 0.50977,-0.30664 z m -13.031,7.9668 a 303,88.134 0 0 0 -0.16992,0.13477 303,88.134 0 0 1 0.16992,-0.13477 z m -10.221,8.2949 a 303,88.134 0 0 0 -0.0781,0.0899 303,88.134 0 0 1 0.0781,-0.0899 z"
             style="paint-order:normal"
             id="path857"
             inkscape:connector-curvature="0" />
          <path
             transform="scale(0.26458)"
             d="m -42.967,343.93 a 303,120.13 0 0 0 -301.24,107.86 303,88.134 0 0 0 -0.33789,1.0059 303,88.134 0 0 0 -1.4219,8.2656 303,88.134 0 0 0 303,88.135 303,88.134 0 0 0 303,-88.135 303,88.134 0 0 0 -1.6055,-8.2637 303,120.13 0 0 0 -301.39,-108.87 z m -22.244,29.25 a 303,88.134 0 0 0 -13.143,0.46289 303,88.134 0 0 1 13.143,-0.46289 z m -30.311,1.0996 a 303,88.134 0 0 0 -11.082,0.72461 303,88.134 0 0 1 11.082,-0.72461 z m -29.566,1.9648 a 303,88.134 0 0 0 -9.5312,0.91993 303,88.134 0 0 1 9.5312,-0.91993 z m -28.844,2.8262 a 303,88.134 0 0 0 -7.4102,0.96484 303,88.134 0 0 1 7.4102,-0.96484 z m -27.611,3.6367 a 303,88.134 0 0 0 -6.4414,1.0742 303,88.134 0 0 1 6.4414,-1.0742 z m -26.271,4.4297 a 303,88.134 0 0 0 -4.9824,1.0371 303,88.134 0 0 1 4.9824,-1.0371 z m -24.607,5.1719 a 303,88.134 0 0 0 -3.7637,0.96093 303,88.134 0 0 1 3.7637,-0.96093 z m -22.68,5.8535 a 303,88.134 0 0 0 -2.9062,0.90821 303,88.134 0 0 1 2.9062,-0.90821 z m -20.582,6.4941 a 303,88.134 0 0 0 -1.834,0.70118 303,88.134 0 0 1 1.834,-0.70118 z m -18.238,7.0586 a 303,88.134 0 0 0 -0.98242,0.46679 303,88.134 0 0 1 0.98242,-0.46679 z m -15.705,7.5469 a 303,88.134 0 0 0 -0.50977,0.30664 303,88.134 0 0 1 0.50977,-0.30664 z m -13.031,7.9668 a 303,88.134 0 0 0 -0.16992,0.13477 303,88.134 0 0 1 0.16992,-0.13477 z m -10.221,8.2949 a 303,88.134 0 0 0 -0.0781,0.0899 303,88.134 0 0 1 0.0781,-0.0899 z"
             style="paint-order:normal"
             id="path859"
             inkscape:connector-curvature="0" />
        </g>
        <g
           id="g877"
           style="fill:#603f2a;fill-rule:evenodd;stroke:#a76d48;stroke-width:1.48440003;stroke-linecap:round;stroke-linejoin:round">
          <rect
             transform="matrix(-0.81725,0.57628,-0.9479,0.31856,0,0)"
             x="442.25"
             y="-442.51999"
             width="14.403"
             height="14.403"
             style="paint-order:normal"
             id="rect863" />
          <rect
             transform="matrix(-0.60999,0.79241,-0.81109,0.58492,0,0)"
             x="480.60999"
             y="-446.26001"
             width="14.403"
             height="14.403"
             style="paint-order:normal"
             id="rect865" />
          <rect
             transform="matrix(-0.21457,0.97671,-0.48487,0.87459,0,0)"
             x="468.23999"
             y="-382.57001"
             width="14.403"
             height="14.403"
             style="paint-order:normal"
             id="rect867" />
          <rect
             transform="matrix(0.15331,0.98818,-0.13562,0.99076,0,0)"
             x="422.48001"
             y="-295.60999"
             width="14.403"
             height="14.403"
             style="paint-order:normal"
             id="rect869" />
          <rect
             transform="matrix(0.81725,0.57628,0.9479,0.31856,0,0)"
             x="208.14"
             y="-18.184"
             width="14.403"
             height="14.403"
             style="paint-order:normal"
             id="rect871" />
          <rect
             transform="matrix(0.60999,0.79241,0.81109,0.58492,0,0)"
             x="49.887001"
             y="137.7"
             width="14.403"
             height="14.403"
             style="paint-order:normal"
             id="rect873" />
          <rect
             transform="matrix(0.21457,0.97671,0.48487,0.87459,0,0)"
             x="-176.45"
             y="337.70999"
             width="14.403"
             height="14.403"
             style="paint-order:normal"
             id="rect875" />
        </g>
        <g
           transform="translate(116.37,-64.822)"
           id="g881"
           style="fill:#2e1809">
          <path
             d="m 38.435,175.17 a 78.788,31.238 0 0 1 28.496,21.212 78.788,22.917 0 0 1 0.41754,2.1487 78.788,22.917 0 0 1 -78.788,22.917 78.788,22.917 0 0 1 -78.788,-22.917 78.788,22.917 0 0 1 0.37,-2.1492 78.788,22.917 0 0 1 0.08785,-0.26149 78.788,31.238 0 0 1 21.661,-18.485 80.169,31.785 0 0 0 -22.962,19.164 80.169,23.319 0 0 0 -0.0894,0.26614 80.169,23.319 0 0 0 -0.37621,2.187 80.169,23.319 0 0 0 80.169,23.319 80.169,23.319 0 0 0 80.169,-23.319 80.169,23.319 0 0 0 -0.42478,-2.1864 80.169,31.785 0 0 0 -29.941,-21.895 z m -55.659,0.50901 a 78.788,22.917 0 0 0 -3.4174,0.12041 78.788,22.917 0 0 1 3.4174,-0.12041 z m -7.8812,0.28577 a 78.788,22.917 0 0 0 -2.882,0.18862 78.788,22.917 0 0 1 2.882,-0.18862 z m 7.8512,0.0346 a 80.169,23.319 0 0 0 -3.4773,0.12247 80.169,23.319 0 0 1 3.4773,-0.12247 z m -8.0197,0.29094 a 80.169,23.319 0 0 0 -2.9321,0.19172 80.169,23.319 0 0 1 2.9321,-0.19172 z m -7.52,0.18551 a 78.788,22.917 0 0 0 -2.4784,0.23927 78.788,22.917 0 0 1 2.4784,-0.23927 z m -0.30282,0.33435 a 80.169,23.319 0 0 0 -2.5218,0.2434 80.169,23.319 0 0 1 2.5218,-0.2434 z m -7.197,0.40049 a 78.788,22.917 0 0 0 -1.927,0.25115 78.788,22.917 0 0 1 1.927,-0.25115 z m -0.4346,0.34727 a 80.169,23.319 0 0 0 -1.9606,0.25528 80.169,23.319 0 0 1 1.9606,-0.25528 z m -6.7453,0.59841 a 78.788,22.917 0 0 0 -1.6748,0.27957 78.788,22.917 0 0 1 1.6748,-0.27957 z m -0.56017,0.3638 a 80.169,23.319 0 0 0 -1.7043,0.28422 80.169,23.319 0 0 1 1.7043,-0.28422 z m -6.2709,0.78807 a 78.788,22.917 0 0 0 -1.2955,0.26975 78.788,22.917 0 0 1 1.2955,-0.26975 z m -0.68006,0.38396 a 80.169,23.319 0 0 0 -1.3183,0.2744 80.169,23.319 0 0 1 1.3183,-0.2744 z m -5.7185,0.96066 a 78.788,22.917 0 0 0 -0.97875,0.25012 78.788,22.917 0 0 1 0.97875,-0.25012 z m -0.7922,0.40773 a 80.169,23.319 0 0 0 -0.9958,0.25425 80.169,23.319 0 0 1 0.9958,-0.25425 z m -5.1051,1.1147 a 78.788,22.917 0 0 0 -0.75551,0.23616 78.788,22.917 0 0 1 0.75551,-0.23616 z m -0.89555,0.43408 a 80.169,23.319 0 0 0 -0.76895,0.2403 80.169,23.319 0 0 1 0.76895,-0.2403 z m -4.4566,1.2542 a 78.788,22.917 0 0 0 -0.47646,0.18241 78.788,22.917 0 0 1 0.47646,-0.18241 z m -0.98909,0.46405 a 80.169,23.319 0 0 0 -0.48524,0.18552 80.169,23.319 0 0 1 0.48524,-0.18552 z m -3.7533,1.3715 a 78.788,22.917 0 0 0 -0.25528,0.12145 78.788,22.917 0 0 1 0.25528,-0.12145 z m -1.0723,0.4961 a 80.169,23.319 0 0 0 -0.25993,0.12351 80.169,23.319 0 0 1 0.25993,-0.12351 z m -3.0112,1.4666 a 78.788,22.917 0 0 0 -0.13281,0.0796 78.788,22.917 0 0 1 0.13281,-0.0796 z m -1.1441,0.5302 a 80.169,23.319 0 0 0 -0.13488,0.0811 80.169,23.319 0 0 1 0.13488,-0.0811 z m -2.2443,1.541 a 78.788,22.917 0 0 0 -0.04444,0.0351 78.788,22.917 0 0 1 0.04444,-0.0351 z m -1.2035,0.56689 a 80.169,23.319 0 0 0 -0.04496,0.0356 80.169,23.319 0 0 1 0.04496,-0.0356 z m -1.4542,1.5901 a 78.788,22.917 0 0 0 -0.02015,0.0238 78.788,22.917 0 0 1 0.02015,-0.0238 z m -1.2501,0.60462 a 80.169,23.319 0 0 0 -0.02067,0.0238 80.169,23.319 0 0 1 0.02067,-0.0238 z"
             style="opacity:0.269;fill:#2e1809;fill-rule:evenodd;paint-order:normal"
             id="path879"
             inkscape:connector-curvature="0" />
        </g>
        <g
           transform="translate(116.37,-58.274)"
           id="g885">
          <path
             d="m 57.436,177.31 c 1.2607,0.83814 2.4145,1.6986 3.4716,2.5756 8.6692,3.9506 13.337,8.5489 13.348,13.267 6.24e-4,13.687 -38.343,24.782 -85.642,24.782 -47.299,-4e-5 -85.642,-11.095 -85.642,-24.782 0.02148,-4.7078 4.6786,-9.2952 13.32,-13.238 1.053,-0.876 2.2022,-1.7356 3.4582,-2.573 -12.714,4.5744 -19.662,10.277 -19.689,16.159 -5.29e-4,14.225 39.646,25.758 88.552,25.758 48.907,-2e-5 88.553,-11.532 88.552,-25.758 -0.01363,-5.8946 -6.9778,-11.61 -19.73,-16.191 z"
             style="fill:#a76d48;fill-rule:evenodd;paint-order:normal"
             id="path883"
             inkscape:connector-curvature="0" />
        </g>
      </g>
      <path
         d="m 120.72,112.49 a 6.0358,1.5677 0 0 0 -1.2322,0.94581 6.0358,1.5677 0 0 0 6.0358,1.5677 6.0358,1.5677 0 0 0 6.0358,-1.5677 6.0358,1.5677 0 0 0 -1.008,-0.86565 v 0.74297 a 4.9177,1.2276 0 0 1 0.002,0.0121 4.9177,1.2276 0 0 1 -0.002,0.017 v 0.0174 h -0.003 a 4.9177,1.2276 0 0 1 -4.913,1.1928 4.9177,1.2276 0 0 1 -4.9105,-1.1928 h -0.005 v -0.0247 a 4.9177,1.2276 0 0 1 -0.002,-0.01 4.9177,1.2276 0 0 1 0.002,-0.0142 z"
         style="fill:#603f2a;fill-rule:evenodd;paint-order:normal"
         id="path889"
         inkscape:connector-curvature="0" />
      <g
         id="g901"
         style="fill-rule:evenodd">
        <g
           transform="rotate(45,-182.61,457.29)"
           id="g895">
          <path
             d="m -221.79,-29.096 h 6.361 v 16.557 h -6.361 z"
             style="fill:#999999;paint-order:normal"
             id="path891"
             inkscape:connector-curvature="0" />
          <path
             transform="matrix(0.26458,0,0,0.26458,-81.571,9.3544)"
             d="m -517.96,-663.16 a 7.1945,7.1945 0 0 0 -7.1953,7.1953 7.1945,7.1945 0 0 0 0.008,0.22656 v 11.002 h 3.8379 v 7.8574 h -3.8555 c -0.27326,0.002 -0.49394,0.22298 -0.49609,0.49609 l -8.9922,255.02 -0.0723,261.17 c -0.004,0.2807 0.22106,0.51091 0.50196,0.50976 h 32.525 c 0.28082,0.001 0.50093,-0.2197 0.50195,-0.50976 l 0.0156,-260.56 -9.084,-255.62 c -0.002,-0.27553 -0.22673,-0.49719 -0.50195,-0.49609 h -3.8457 v -7.8574 h 3.8457 v -11.281 h -0.002 a 7.1945,7.1945 0 0 0 -7.1914,-7.1426 z"
             style="fill:#333333;paint-order:normal"
             id="path893"
             inkscape:connector-curvature="0" />
        </g>
        <path
           d="m 125.63,94.132 a 5.132,5.131 0 0 0 -5.131,5.1134 h -10e-4 v 13.953 a 5.1332,1.5669 0 0 0 -0.003,0.0155 5.1332,1.5669 0 0 0 0.003,0.0222 v 0.0222 h 0.003 a 5.1332,1.5669 0 0 0 5.1284,1.5224 5.1332,1.5669 0 0 0 5.1258,-1.5224 h 0.005 v -0.0315 a 5.1332,1.5669 0 0 0 0.002,-0.0129 5.1332,1.5669 0 0 0 -0.002,-0.0176 v -13.892 a 5.132,5.131 0 0 0 0.002,-0.04186 5.132,5.131 0 0 0 -5.132,-5.131 z"
           style="fill:#4d4d4d;paint-order:normal"
           id="path897"
           inkscape:connector-curvature="0" />
        <circle
           cx="125.6"
           cy="98.216003"
           r="1.7859"
           style="fill:#d3bc5f;paint-order:normal"
           id="circle899" />
      </g>
      <path
         d="m 79.45,112.49 a 6.0358,1.5677 0 0 0 -1.2322,0.94581 6.0358,1.5677 0 0 0 6.0358,1.5677 6.0358,1.5677 0 0 0 6.0358,-1.5677 6.0358,1.5677 0 0 0 -1.0079,-0.86565 v 0.74297 a 4.9177,1.2276 0 0 1 0.0025,0.0121 4.9177,1.2276 0 0 1 -0.0025,0.017 v 0.0174 h -0.003 a 4.9177,1.2276 0 0 1 -4.913,1.1928 4.9177,1.2276 0 0 1 -4.9105,-1.1928 H 79.45 v -0.0247 a 4.9177,1.2276 0 0 1 -0.002,-0.01 4.9177,1.2276 0 0 1 0.002,-0.0142 z"
         style="fill:#603f2a;fill-rule:evenodd;paint-order:normal"
         id="path903"
         inkscape:connector-curvature="0" />
      <g
         transform="matrix(0.41333,0,0,0.41333,311.16,101.19)"
         id="g917"
         style="fill:#4d4d4d;fill-rule:evenodd">
        <path
           transform="scale(0.26458)"
           d="m -1885.1,-417.29 a 300,300 0 0 0 -212,88 l 106,106 a 150,150 0 0 1 106,-44 150,150 0 0 1 106,44 l 106,-106 a 300,300 0 0 0 -212,-88 z"
           style="paint-order:normal"
           id="path905"
           inkscape:connector-curvature="0" />
        <path
           transform="scale(0.26458)"
           d="m -1885.1,-642.29 a 525,525 0 0 0 -371,154 l 106,106 a 375,375 0 0 1 265,-110 375,375 0 0 1 265,110 l 106,-106 a 525,525 0 0 0 -371,-154 z"
           style="paint-order:normal"
           id="path907"
           inkscape:connector-curvature="0" />
        <path
           transform="scale(0.26458)"
           d="m -1885.1,-867.29 a 750,750 0 0 0 -530,220 l 106,106 a 600,600 0 0 1 424,-176 600,600 0 0 1 424,176 l 106,-106 a 750,750 0 0 0 -530,-220 z"
           style="paint-order:normal"
           id="path909"
           inkscape:connector-curvature="0" />
        <path
           transform="scale(0.26458)"
           d="m -1885.1,-1317.3 a 1200,1200 0 0 0 -848,352 l 106,106 a 1050,1050 0 0 1 742,-308 1050,1050 0 0 1 742,308 l 106,-106 a 1200,1200 0 0 0 -848,-352 z"
           style="paint-order:normal"
           id="path911"
           inkscape:connector-curvature="0" />
        <path
           transform="scale(0.26458)"
           d="m -1885.1,-1092.3 a 975,975 0 0 0 -689,286 l 106,106 a 825,825 0 0 1 583,-242 825,825 0 0 1 583,242 l 106,-106 a 975,975 0 0 0 -689,-286 z"
           style="paint-order:normal"
           id="path913"
           inkscape:connector-curvature="0" />
        <circle
           cx="-498.78"
           cy="-31.033001"
           r="19.844"
           style="paint-order:normal"
           id="circle915" />
      </g>
      <g
         transform="matrix(-1,0,0,1,209.97,-0.034094)"
         id="g929"
         style="fill-rule:evenodd">
        <g
           transform="rotate(45,-182.61,457.29)"
           id="g923">
          <path
             d="m -221.79,-29.096 h 6.361 v 16.557 h -6.361 z"
             style="fill:#999999;paint-order:normal"
             id="path919"
             inkscape:connector-curvature="0" />
          <path
             transform="matrix(0.26458,0,0,0.26458,-81.571,9.3544)"
             d="m -517.96,-663.16 a 7.1945,7.1945 0 0 0 -7.1953,7.1953 7.1945,7.1945 0 0 0 0.008,0.22656 v 11.002 h 3.8379 v 7.8574 h -3.8555 c -0.27326,0.002 -0.49394,0.22298 -0.49609,0.49609 l -8.9922,255.02 -0.0723,261.17 c -0.004,0.2807 0.22106,0.51091 0.50196,0.50976 h 32.525 c 0.28082,0.001 0.50093,-0.2197 0.50195,-0.50976 l 0.0156,-260.56 -9.084,-255.62 c -0.002,-0.27553 -0.22673,-0.49719 -0.50195,-0.49609 h -3.8457 v -7.8574 h 3.8457 v -11.281 h -0.002 a 7.1945,7.1945 0 0 0 -7.1914,-7.1426 z"
             style="fill:#333333;paint-order:normal"
             id="path921"
             inkscape:connector-curvature="0" />
        </g>
        <path
           d="m 125.63,94.132 a 5.132,5.131 0 0 0 -5.131,5.1134 h -10e-4 v 13.953 a 5.1332,1.5669 0 0 0 -0.003,0.0155 5.1332,1.5669 0 0 0 0.003,0.0222 v 0.0222 h 0.003 a 5.1332,1.5669 0 0 0 5.1284,1.5224 5.1332,1.5669 0 0 0 5.1258,-1.5224 h 0.005 v -0.0315 a 5.1332,1.5669 0 0 0 0.002,-0.0129 5.1332,1.5669 0 0 0 -0.002,-0.0176 v -13.892 a 5.132,5.131 0 0 0 0.002,-0.04186 5.132,5.131 0 0 0 -5.132,-5.131 z"
           style="fill:#4d4d4d;paint-order:normal"
           id="path925"
           inkscape:connector-curvature="0" />
        <circle
           cx="125.6"
           cy="98.216003"
           r="1.7859"
           style="fill:#d3bc5f;paint-order:normal"
           id="circle927" />
      </g>
    </g>
    <circle
       cx="1259.9"
       cy="-363.29999"
       r="19.844"
       style="fill:#333333;fill-rule:evenodd;paint-order:normal"
       id="circle933" />
    <g
       transform="translate(1760.3,-333.46)"
       id="g937">
      <path
         transform="matrix(0.26458,0,0,0.26458,-1.6686,1.1887)"
         d="m -2737.1,-969.29 -23,23 852,852 23,-23 z m 852,852 23,23 852,-852 -23,-23 z"
         style="opacity:0.47300002;fill-rule:evenodd;paint-order:normal"
         id="path935"
         inkscape:connector-curvature="0" />
    </g>
    <g
       id="g949"
       style="fill:#999999;fill-rule:evenodd">
      <path
         d="m -1901.2,-172.93 a 138.91,138.91 0 0 0 -138.91,138.91 138.91,138.91 0 0 0 138.91,138.91 138.91,138.91 0 0 0 138.91,-138.91 138.91,138.91 0 0 0 -138.91,-138.91 z m 0,39.688 a 99.219,99.219 0 0 1 99.219,99.219 99.219,99.219 0 0 1 -99.219,99.219 99.219,99.219 0 0 1 -99.219,-99.219 99.219,99.219 0 0 1 99.219,-99.219 z"
         style="opacity:0.47300002;paint-order:normal"
         id="path939"
         inkscape:connector-curvature="0" />
      <path
         d="m -1901.2,-232.46 a 198.44,198.44 0 0 0 -198.44,198.44 198.44,198.44 0 0 0 198.44,198.44 198.44,198.44 0 0 0 198.44,-198.44 198.44,198.44 0 0 0 -198.44,-198.44 z m 0,39.688 a 158.75,158.75 0 0 1 158.75,158.75 158.75,158.75 0 0 1 -158.75,158.75 158.75,158.75 0 0 1 -158.75,-158.75 158.75,158.75 0 0 1 158.75,-158.75 z"
         style="opacity:0.47300002;paint-order:normal"
         id="path941"
         inkscape:connector-curvature="0" />
      <path
         d="m -1901.2,-351.53 a 317.5,317.5 0 0 0 -317.5,317.5 317.5,317.5 0 0 0 317.5,317.5 317.5,317.5 0 0 0 317.5,-317.5 317.5,317.5 0 0 0 -317.5,-317.5 z m 0,39.688 a 277.81,277.81 0 0 1 277.81,277.81 277.81,277.81 0 0 1 -277.81,277.81 277.81,277.81 0 0 1 -277.81,-277.81 277.81,277.81 0 0 1 277.81,-277.81 z"
         style="opacity:0.47300002;paint-order:normal"
         id="path943"
         inkscape:connector-curvature="0" />
      <path
         d="m -1901.2,-291.99 a 257.97,257.97 0 0 0 -257.97,257.97 257.97,257.97 0 0 0 257.97,257.97 257.97,257.97 0 0 0 257.97,-257.97 257.97,257.97 0 0 0 -257.97,-257.97 z m 0,39.688 a 218.28,218.28 0 0 1 218.28,218.28 218.28,218.28 0 0 1 -218.28,218.28 218.28,218.28 0 0 1 -218.28,-218.28 218.28,218.28 0 0 1 218.28,-218.28 z"
         style="opacity:0.47300002;paint-order:normal"
         id="path945"
         inkscape:connector-curvature="0" />
      <path
         d="m -1901.2,-113.4 a 79.375,79.375 0 0 0 -79.375,79.375 79.375,79.375 0 0 0 79.375,79.375 79.375,79.375 0 0 0 79.375,-79.375 79.375,79.375 0 0 0 -79.375,-79.375 z m 0,39.688 a 39.687,39.687 0 0 1 39.688,39.687 39.687,39.687 0 0 1 -39.688,39.687 39.687,39.687 0 0 1 -39.688,-39.687 39.687,39.687 0 0 1 39.688,-39.687 z"
         style="opacity:0.47300002;paint-order:normal"
         id="path947"
         inkscape:connector-curvature="0" />
    </g>
    <circle
       cx="-1901.2"
       cy="-34.026001"
       r="19.844"
       style="fill:#333333;fill-rule:evenodd;paint-order:normal"
       id="circle951" />
    <g
       transform="translate(-1400.7,-4.1823)"
       id="g955">
      <path
         transform="matrix(0.26458,0,0,0.26458,-1.6686,1.1887)"
         d="m -2737.1,-969.29 -23,23 852,852 23,-23 z m 852,852 23,23 852,-852 -23,-23 z"
         style="opacity:0.47300002;fill-rule:evenodd;paint-order:normal"
         id="path953"
         inkscape:connector-curvature="0" />
    </g>
    <g
       transform="translate(-1177.9,-709.44)"
       id="g969"
       style="fill:#333333;fill-rule:evenodd">
      <path
         transform="scale(0.26458)"
         d="m -1885.1,-417.29 a 300,300 0 0 0 -212,88 l 106,106 a 150,150 0 0 1 106,-44 150,150 0 0 1 106,44 l 106,-106 a 300,300 0 0 0 -212,-88 z"
         style="paint-order:normal"
         id="path957"
         inkscape:connector-curvature="0" />
      <path
         transform="scale(0.26458)"
         d="m -1885.1,-642.29 a 525,525 0 0 0 -371,154 l 106,106 a 375,375 0 0 1 265,-110 375,375 0 0 1 265,110 l 106,-106 a 525,525 0 0 0 -371,-154 z"
         style="paint-order:normal"
         id="path959"
         inkscape:connector-curvature="0" />
      <path
         transform="scale(0.26458)"
         d="m -1885.1,-867.29 a 750,750 0 0 0 -530,220 l 106,106 a 600,600 0 0 1 424,-176 600,600 0 0 1 424,176 l 106,-106 a 750,750 0 0 0 -530,-220 z"
         style="paint-order:normal"
         id="path961"
         inkscape:connector-curvature="0" />
      <path
         transform="scale(0.26458)"
         d="m -1885.1,-1317.3 a 1200,1200 0 0 0 -848,352 l 106,106 a 1050,1050 0 0 1 742,-308 1050,1050 0 0 1 742,308 l 106,-106 a 1200,1200 0 0 0 -848,-352 z"
         style="paint-order:normal"
         id="path963"
         inkscape:connector-curvature="0" />
      <path
         transform="scale(0.26458)"
         d="m -1885.1,-1092.3 a 975,975 0 0 0 -689,286 l 106,106 a 825,825 0 0 1 583,-242 825,825 0 0 1 583,242 l 106,-106 a 975,975 0 0 0 -689,-286 z"
         style="paint-order:normal"
         id="path965"
         inkscape:connector-curvature="0" />
      <circle
         cx="-498.78"
         cy="-31.033001"
         r="19.844"
         style="paint-order:normal"
         id="circle967" />
    </g>
  </g>
  <g
     id="g1365"
     transform="matrix(2.056531,0,0,2.056531,14.163515,-5.2826457)">
    <ellipse
       id="ellipse973"
       style="opacity:0.05700001;fill-rule:evenodd;stroke-width:1.76380002;paint-order:normal"
       ry="59.267208"
       rx="201.60234"
       cy="422.81415"
       cx="235.11105" />
    <g
       transform="matrix(1.7638,0,0,1.7638,49.912036,137.43129)"
       id="g1021">
      <ellipse
         id="ellipse975"
         style="fill-opacity:0;paint-order:normal"
         ry="15.346"
         rx="70.776001"
         cy="178.21001"
         cx="98.244003" />
      <g
         style="fill-rule:evenodd"
         id="g989">
        <path
           inkscape:connector-curvature="0"
           id="path977"
           style="fill-opacity:0.49468001;paint-order:normal"
           d="m 18.258,135.84 0.08578,0.25683 A 86.783,25.243 0 0 1 18.31277,135.84 Z" />
        <path
           inkscape:connector-curvature="0"
           id="path979"
           style="fill-opacity:0.49468001;paint-order:normal"
           d="m 191.63,135.84 a 86.783,25.243 0 0 1 -0.10387,0.60255 l 0.20153,-0.60255 z" />
        <path
           inkscape:connector-curvature="0"
           id="path981"
           style="fill:#4d4d4d;paint-order:normal"
           d="m 190.85,138.42 c -5.9129,12.48 -42.557,21.782 -85.869,21.797 -43.247,-0.0138 -79.859,-9.2871 -85.851,-21.745 l 8.2631,24.72 c 0.56844,1.419 -0.30313,-0.74533 0.56844,1.419 5.068,11.251 38.008,19.669 77.02,19.683 39.016,-0.0121 71.962,-8.4307 77.031,-19.683 l 0.39945,-0.94723 z" />
        <path
           inkscape:connector-curvature="0"
           id="path983"
           style="opacity:0.11700003;fill:#333333;paint-order:normal"
           d="m 190.86,138.42 c -5.9129,12.48 -42.557,21.782 -85.869,21.797 -43.247,-0.0138 -79.859,-9.2871 -85.851,-21.745 l 3.0727,9.1917 a 89.826,26.82 0 0 0 82.787,16.479 89.826,26.82 0 0 0 82.736,-16.376 89.826,26.82 0 0 0 5.2e-4,-5.2e-4 z" />
        <ellipse
           id="ellipse985"
           style="fill:#333333;fill-opacity:0.49468001;paint-order:normal"
           ry="25.243"
           rx="86.782997"
           cy="134.98"
           cx="104.99" />
        <ellipse
           id="ellipse987"
           style="fill:#666666;stroke:#4d4d4d;stroke-width:0.52916998;stroke-linecap:round;stroke-linejoin:round;paint-order:normal"
           ry="26.82"
           rx="89.825996"
           cy="135.52"
           cx="105" />
      </g>
      <g
         style="fill:#d38d5f;fill-rule:evenodd"
         id="g995"
         transform="translate(116.37,12.445)">
        <path
           inkscape:connector-curvature="0"
           id="path991"
           style="paint-order:normal"
           d="m -65.211,373.18 a 303,88.134 0 0 0 -13.143,0.46289 303,88.134 0 0 1 13.143,-0.46289 z m -30.311,1.0996 a 303,88.134 0 0 0 -11.082,0.72461 303,88.134 0 0 1 11.082,-0.72461 z m -29.566,1.9648 a 303,88.134 0 0 0 -9.5312,0.91993 303,88.134 0 0 1 9.5312,-0.91993 z m -28.844,2.8262 a 303,88.134 0 0 0 -7.4102,0.96484 303,88.134 0 0 1 7.4102,-0.96484 z m -27.611,3.6367 a 303,88.134 0 0 0 -6.4414,1.0742 303,88.134 0 0 1 6.4414,-1.0742 z m -26.271,4.4297 a 303,88.134 0 0 0 -4.9824,1.0371 303,88.134 0 0 1 4.9824,-1.0371 z m -24.607,5.1719 a 303,88.134 0 0 0 -3.7637,0.96093 303,88.134 0 0 1 3.7637,-0.96093 z m -22.68,5.8535 a 303,88.134 0 0 0 -2.9062,0.90821 303,88.134 0 0 1 2.9062,-0.90821 z m 472.18,4.707 a 303,120.13 0 0 1 41.348,49.93 303,88.134 0 0 1 1.6055,8.2637 303,88.134 0 0 1 -303,88.135 303,88.134 0 0 1 -303,-88.135 303,88.134 0 0 1 1.4219,-8.2656 303,88.134 0 0 1 0.33789,-1.0059 303,120.13 0 0 1 40.9,-48.803 334.69,97.35 0 0 0 -74.414,61.074 334.69,97.35 0 0 0 334.69,97.352 334.69,97.35 0 0 0 334.69,-97.352 334.69,97.35 0 0 0 -74.57,-61.193 z m -492.76,1.7871 a 303,88.134 0 0 0 -1.834,0.70118 303,88.134 0 0 1 1.834,-0.70118 z m -18.238,7.0586 a 303,88.134 0 0 0 -0.98242,0.46679 303,88.134 0 0 1 0.98242,-0.46679 z m -15.705,7.5469 a 303,88.134 0 0 0 -0.50977,0.30664 303,88.134 0 0 1 0.50977,-0.30664 z m -13.031,7.9668 a 303,88.134 0 0 0 -0.16992,0.13477 303,88.134 0 0 1 0.16992,-0.13477 z m -10.221,8.2949 a 303,88.134 0 0 0 -0.0781,0.0899 303,88.134 0 0 1 0.0781,-0.0899 z"
           transform="scale(0.26458)" />
        <path
           inkscape:connector-curvature="0"
           id="path993"
           style="paint-order:normal"
           d="m -42.967,343.93 a 303,120.13 0 0 0 -301.24,107.86 303,88.134 0 0 0 -0.33789,1.0059 303,88.134 0 0 0 -1.4219,8.2656 303,88.134 0 0 0 303,88.135 303,88.134 0 0 0 303,-88.135 303,88.134 0 0 0 -1.6055,-8.2637 303,120.13 0 0 0 -301.39,-108.87 z m -22.244,29.25 a 303,88.134 0 0 0 -13.143,0.46289 303,88.134 0 0 1 13.143,-0.46289 z m -30.311,1.0996 a 303,88.134 0 0 0 -11.082,0.72461 303,88.134 0 0 1 11.082,-0.72461 z m -29.566,1.9648 a 303,88.134 0 0 0 -9.5312,0.91993 303,88.134 0 0 1 9.5312,-0.91993 z m -28.844,2.8262 a 303,88.134 0 0 0 -7.4102,0.96484 303,88.134 0 0 1 7.4102,-0.96484 z m -27.611,3.6367 a 303,88.134 0 0 0 -6.4414,1.0742 303,88.134 0 0 1 6.4414,-1.0742 z m -26.271,4.4297 a 303,88.134 0 0 0 -4.9824,1.0371 303,88.134 0 0 1 4.9824,-1.0371 z m -24.607,5.1719 a 303,88.134 0 0 0 -3.7637,0.96093 303,88.134 0 0 1 3.7637,-0.96093 z m -22.68,5.8535 a 303,88.134 0 0 0 -2.9062,0.90821 303,88.134 0 0 1 2.9062,-0.90821 z m -20.582,6.4941 a 303,88.134 0 0 0 -1.834,0.70118 303,88.134 0 0 1 1.834,-0.70118 z m -18.238,7.0586 a 303,88.134 0 0 0 -0.98242,0.46679 303,88.134 0 0 1 0.98242,-0.46679 z m -15.705,7.5469 a 303,88.134 0 0 0 -0.50977,0.30664 303,88.134 0 0 1 0.50977,-0.30664 z m -13.031,7.9668 a 303,88.134 0 0 0 -0.16992,0.13477 303,88.134 0 0 1 0.16992,-0.13477 z m -10.221,8.2949 a 303,88.134 0 0 0 -0.0781,0.0899 303,88.134 0 0 1 0.0781,-0.0899 z"
           transform="scale(0.26458)" />
      </g>
      <g
         style="fill:#603f2a;fill-rule:evenodd;stroke:#a76d48;stroke-width:1.48440003;stroke-linecap:round;stroke-linejoin:round"
         id="g1011">
        <rect
           id="rect997"
           style="paint-order:normal"
           height="14.403"
           width="14.403"
           y="-442.51999"
           x="442.25"
           transform="matrix(-0.81725,0.57628,-0.9479,0.31856,0,0)" />
        <rect
           id="rect999"
           style="paint-order:normal"
           height="14.403"
           width="14.403"
           y="-446.26001"
           x="480.60999"
           transform="matrix(-0.60999,0.79241,-0.81109,0.58492,0,0)" />
        <rect
           id="rect1001"
           style="paint-order:normal"
           height="14.403"
           width="14.403"
           y="-382.57001"
           x="468.23999"
           transform="matrix(-0.21457,0.97671,-0.48487,0.87459,0,0)" />
        <rect
           id="rect1003"
           style="paint-order:normal"
           height="14.403"
           width="14.403"
           y="-295.60999"
           x="422.48001"
           transform="matrix(0.15331,0.98818,-0.13562,0.99076,0,0)" />
        <rect
           id="rect1005"
           style="paint-order:normal"
           height="14.403"
           width="14.403"
           y="-18.184"
           x="208.14"
           transform="matrix(0.81725,0.57628,0.9479,0.31856,0,0)" />
        <rect
           id="rect1007"
           style="paint-order:normal"
           height="14.403"
           width="14.403"
           y="137.7"
           x="49.887001"
           transform="matrix(0.60999,0.79241,0.81109,0.58492,0,0)" />
        <rect
           id="rect1009"
           style="paint-order:normal"
           height="14.403"
           width="14.403"
           y="337.70999"
           x="-176.45"
           transform="matrix(0.21457,0.97671,0.48487,0.87459,0,0)" />
      </g>
      <g
         style="fill:#2e1809"
         id="g1015"
         transform="translate(116.37,-64.822)">
        <path
           inkscape:connector-curvature="0"
           id="path1013"
           style="opacity:0.269;fill:#2e1809;fill-rule:evenodd;paint-order:normal"
           d="m 38.435,175.17 a 78.788,31.238 0 0 1 28.496,21.212 78.788,22.917 0 0 1 0.41754,2.1487 78.788,22.917 0 0 1 -78.788,22.917 78.788,22.917 0 0 1 -78.788,-22.917 78.788,22.917 0 0 1 0.37,-2.1492 78.788,22.917 0 0 1 0.08785,-0.26149 78.788,31.238 0 0 1 21.661,-18.485 80.169,31.785 0 0 0 -22.962,19.164 80.169,23.319 0 0 0 -0.0894,0.26614 80.169,23.319 0 0 0 -0.37621,2.187 80.169,23.319 0 0 0 80.169,23.319 80.169,23.319 0 0 0 80.169,-23.319 80.169,23.319 0 0 0 -0.42478,-2.1864 80.169,31.785 0 0 0 -29.941,-21.895 z m -55.659,0.50901 a 78.788,22.917 0 0 0 -3.4174,0.12041 78.788,22.917 0 0 1 3.4174,-0.12041 z m -7.8812,0.28577 a 78.788,22.917 0 0 0 -2.882,0.18862 78.788,22.917 0 0 1 2.882,-0.18862 z m 7.8512,0.0346 a 80.169,23.319 0 0 0 -3.4773,0.12247 80.169,23.319 0 0 1 3.4773,-0.12247 z m -8.0197,0.29094 a 80.169,23.319 0 0 0 -2.9321,0.19172 80.169,23.319 0 0 1 2.9321,-0.19172 z m -7.52,0.18551 a 78.788,22.917 0 0 0 -2.4784,0.23927 78.788,22.917 0 0 1 2.4784,-0.23927 z m -0.30282,0.33435 a 80.169,23.319 0 0 0 -2.5218,0.2434 80.169,23.319 0 0 1 2.5218,-0.2434 z m -7.197,0.40049 a 78.788,22.917 0 0 0 -1.927,0.25115 78.788,22.917 0 0 1 1.927,-0.25115 z m -0.4346,0.34727 a 80.169,23.319 0 0 0 -1.9606,0.25528 80.169,23.319 0 0 1 1.9606,-0.25528 z m -6.7453,0.59841 a 78.788,22.917 0 0 0 -1.6748,0.27957 78.788,22.917 0 0 1 1.6748,-0.27957 z m -0.56017,0.3638 a 80.169,23.319 0 0 0 -1.7043,0.28422 80.169,23.319 0 0 1 1.7043,-0.28422 z m -6.2709,0.78807 a 78.788,22.917 0 0 0 -1.2955,0.26975 78.788,22.917 0 0 1 1.2955,-0.26975 z m -0.68006,0.38396 a 80.169,23.319 0 0 0 -1.3183,0.2744 80.169,23.319 0 0 1 1.3183,-0.2744 z m -5.7185,0.96066 a 78.788,22.917 0 0 0 -0.97875,0.25012 78.788,22.917 0 0 1 0.97875,-0.25012 z m -0.7922,0.40773 a 80.169,23.319 0 0 0 -0.9958,0.25425 80.169,23.319 0 0 1 0.9958,-0.25425 z m -5.1051,1.1147 a 78.788,22.917 0 0 0 -0.75551,0.23616 78.788,22.917 0 0 1 0.75551,-0.23616 z m -0.89555,0.43408 a 80.169,23.319 0 0 0 -0.76895,0.2403 80.169,23.319 0 0 1 0.76895,-0.2403 z m -4.4566,1.2542 a 78.788,22.917 0 0 0 -0.47646,0.18241 78.788,22.917 0 0 1 0.47646,-0.18241 z m -0.98909,0.46405 a 80.169,23.319 0 0 0 -0.48524,0.18552 80.169,23.319 0 0 1 0.48524,-0.18552 z m -3.7533,1.3715 a 78.788,22.917 0 0 0 -0.25528,0.12145 78.788,22.917 0 0 1 0.25528,-0.12145 z m -1.0723,0.4961 a 80.169,23.319 0 0 0 -0.25993,0.12351 80.169,23.319 0 0 1 0.25993,-0.12351 z m -3.0112,1.4666 a 78.788,22.917 0 0 0 -0.13281,0.0796 78.788,22.917 0 0 1 0.13281,-0.0796 z m -1.1441,0.5302 a 80.169,23.319 0 0 0 -0.13488,0.0811 80.169,23.319 0 0 1 0.13488,-0.0811 z m -2.2443,1.541 a 78.788,22.917 0 0 0 -0.04444,0.0351 78.788,22.917 0 0 1 0.04444,-0.0351 z m -1.2035,0.56689 a 80.169,23.319 0 0 0 -0.04496,0.0356 80.169,23.319 0 0 1 0.04496,-0.0356 z m -1.4542,1.5901 a 78.788,22.917 0 0 0 -0.02015,0.0238 78.788,22.917 0 0 1 0.02015,-0.0238 z m -1.2501,0.60462 a 80.169,23.319 0 0 0 -0.02067,0.0238 80.169,23.319 0 0 1 0.02067,-0.0238 z" />
      </g>
      <g
         id="g1019"
         transform="translate(116.37,-58.274)">
        <path
           inkscape:connector-curvature="0"
           id="path1017"
           style="fill:#a76d48;fill-rule:evenodd;paint-order:normal"
           d="m 57.436,177.31 c 1.2607,0.83814 2.4145,1.6986 3.4716,2.5756 8.6692,3.9506 13.337,8.5489 13.348,13.267 6.24e-4,13.687 -38.343,24.782 -85.642,24.782 -47.299,-4e-5 -85.642,-11.095 -85.642,-24.782 0.02148,-4.7078 4.6786,-9.2952 13.32,-13.238 1.053,-0.876 2.2022,-1.7356 3.4582,-2.573 -12.714,4.5744 -19.662,10.277 -19.689,16.159 -5.29e-4,14.225 39.646,25.758 88.552,25.758 48.907,-2e-5 88.553,-11.532 88.552,-25.758 -0.01363,-5.8946 -6.9778,-11.61 -19.73,-16.191 z" />
      </g>
    </g>
    <path
       inkscape:connector-curvature="0"
       id="path1023"
       style="fill:#603f2a;fill-rule:evenodd;stroke-width:1.76380002;paint-order:normal"
       d="m 262.83798,335.84115 a 10.645944,2.7651093 0 0 0 -2.17336,1.66822 10.645944,2.7651093 0 0 0 10.64595,2.76511 10.645944,2.7651093 0 0 0 10.64594,-2.76511 10.645944,2.7651093 0 0 0 -1.77791,-1.52683 v 1.31045 a 8.6738393,2.1652409 0 0 1 0.004,0.0213 8.6738393,2.1652409 0 0 1 -0.004,0.03 v 0.0307 h -0.005 a 8.6738393,2.1652409 0 0 1 -8.66555,2.10386 8.6738393,2.1652409 0 0 1 -8.66114,-2.10386 h -0.009 v -0.0436 a 8.6738393,2.1652409 0 0 1 -0.004,-0.0176 8.6738393,2.1652409 0 0 1 0.004,-0.025 z" />
    <g
       transform="matrix(1.7638,0,0,1.7638,49.912036,137.43129)"
       style="fill-rule:evenodd"
       id="g1035">
      <g
         id="g1029"
         transform="rotate(45,-182.61,457.29)">
        <path
           inkscape:connector-curvature="0"
           id="path1025"
           style="fill:#999999;paint-order:normal"
           d="m -221.79,-29.096 h 6.361 v 16.557 h -6.361 z" />
        <path
           inkscape:connector-curvature="0"
           id="path1027"
           style="fill:#333333;paint-order:normal"
           d="m -517.96,-663.16 a 7.1945,7.1945 0 0 0 -7.1953,7.1953 7.1945,7.1945 0 0 0 0.008,0.22656 v 11.002 h 3.8379 v 7.8574 h -3.8555 c -0.27326,0.002 -0.49394,0.22298 -0.49609,0.49609 l -8.9922,255.02 -0.0723,261.17 c -0.004,0.2807 0.22106,0.51091 0.50196,0.50976 h 32.525 c 0.28082,0.001 0.50093,-0.2197 0.50195,-0.50976 l 0.0156,-260.56 -9.084,-255.62 c -0.002,-0.27553 -0.22673,-0.49719 -0.50195,-0.49609 h -3.8457 v -7.8574 h 3.8457 v -11.281 h -0.002 a 7.1945,7.1945 0 0 0 -7.1914,-7.1426 z"
           transform="matrix(0.26458,0,0,0.26458,-81.571,9.3544)" />
      </g>
      <path
         inkscape:connector-curvature="0"
         id="path1031"
         style="fill:#4d4d4d;paint-order:normal"
         d="m 125.63,94.132 a 5.132,5.131 0 0 0 -5.131,5.1134 h -10e-4 v 13.953 a 5.1332,1.5669 0 0 0 -0.003,0.0155 5.1332,1.5669 0 0 0 0.003,0.0222 v 0.0222 h 0.003 a 5.1332,1.5669 0 0 0 5.1284,1.5224 5.1332,1.5669 0 0 0 5.1258,-1.5224 h 0.005 v -0.0315 a 5.1332,1.5669 0 0 0 0.002,-0.0129 5.1332,1.5669 0 0 0 -0.002,-0.0176 v -13.892 a 5.132,5.131 0 0 0 0.002,-0.04186 5.132,5.131 0 0 0 -5.132,-5.131 z" />
      <circle
         id="circle1033"
         style="fill:#d3bc5f;paint-order:normal"
         r="1.7859"
         cy="98.216003"
         cx="125.6" />
    </g>
    <path
       inkscape:connector-curvature="0"
       id="path1037"
       style="fill:#603f2a;fill-rule:evenodd;stroke-width:1.76380002;paint-order:normal"
       d="m 190.04595,335.84115 a 10.645944,2.7651093 0 0 0 -2.17335,1.66822 10.645944,2.7651093 0 0 0 10.64594,2.76511 10.645944,2.7651093 0 0 0 10.64594,-2.76511 10.645944,2.7651093 0 0 0 -1.77773,-1.52683 v 1.31045 a 8.6738393,2.1652409 0 0 1 0.004,0.0213 8.6738393,2.1652409 0 0 1 -0.004,0.03 v 0.0307 h -0.005 a 8.6738393,2.1652409 0 0 1 -8.66555,2.10386 8.6738393,2.1652409 0 0 1 -8.66114,-2.10386 h -0.009 v -0.0436 a 8.6738393,2.1652409 0 0 1 -0.004,-0.0176 8.6738393,2.1652409 0 0 1 0.004,-0.025 z" />
    <g
       style="fill:#4d4d4d;fill-rule:evenodd"
       id="g1051"
       transform="matrix(0.72903145,0,0,0.72903145,598.73605,315.91021)">
      <path
         inkscape:connector-curvature="0"
         id="path1039"
         style="paint-order:normal"
         d="m -1885.1,-417.29 a 300,300 0 0 0 -212,88 l 106,106 a 150,150 0 0 1 106,-44 150,150 0 0 1 106,44 l 106,-106 a 300,300 0 0 0 -212,-88 z"
         transform="scale(0.26458)" />
      <path
         inkscape:connector-curvature="0"
         id="path1041"
         style="paint-order:normal"
         d="m -1885.1,-642.29 a 525,525 0 0 0 -371,154 l 106,106 a 375,375 0 0 1 265,-110 375,375 0 0 1 265,110 l 106,-106 a 525,525 0 0 0 -371,-154 z"
         transform="scale(0.26458)" />
      <path
         inkscape:connector-curvature="0"
         id="path1043"
         style="paint-order:normal"
         d="m -1885.1,-867.29 a 750,750 0 0 0 -530,220 l 106,106 a 600,600 0 0 1 424,-176 600,600 0 0 1 424,176 l 106,-106 a 750,750 0 0 0 -530,-220 z"
         transform="scale(0.26458)" />
      <path
         inkscape:connector-curvature="0"
         id="path1045"
         style="paint-order:normal"
         d="m -1885.1,-1317.3 a 1200,1200 0 0 0 -848,352 l 106,106 a 1050,1050 0 0 1 742,-308 1050,1050 0 0 1 742,308 l 106,-106 a 1200,1200 0 0 0 -848,-352 z"
         transform="scale(0.26458)" />
      <path
         inkscape:connector-curvature="0"
         id="path1047"
         style="paint-order:normal"
         d="m -1885.1,-1092.3 a 975,975 0 0 0 -689,286 l 106,106 a 825,825 0 0 1 583,-242 825,825 0 0 1 583,242 l 106,-106 a 975,975 0 0 0 -689,-286 z"
         transform="scale(0.26458)" />
      <circle
         id="circle1049"
         style="paint-order:normal"
         r="19.844"
         cy="-31.033001"
         cx="-498.78" />
      <g
         id="g1138"
         transform="matrix(1.3716829,0,0,1.3716829,-1320.2814,-693.05635)" />
    </g>
    <g
       style="fill-rule:evenodd"
       id="g1063"
       transform="matrix(-1.7638,0,0,1.7638,420.25713,137.37116)">
      <g
         id="g1057"
         transform="rotate(45,-182.61,457.29)">
        <path
           inkscape:connector-curvature="0"
           id="path1053"
           style="fill:#999999;paint-order:normal"
           d="m -221.79,-29.096 h 6.361 v 16.557 h -6.361 z" />
        <path
           inkscape:connector-curvature="0"
           id="path1055"
           style="fill:#333333;paint-order:normal"
           d="m -517.96,-663.16 a 7.1945,7.1945 0 0 0 -7.1953,7.1953 7.1945,7.1945 0 0 0 0.008,0.22656 v 11.002 h 3.8379 v 7.8574 h -3.8555 c -0.27326,0.002 -0.49394,0.22298 -0.49609,0.49609 l -8.9922,255.02 -0.0723,261.17 c -0.004,0.2807 0.22106,0.51091 0.50196,0.50976 h 32.525 c 0.28082,0.001 0.50093,-0.2197 0.50195,-0.50976 l 0.0156,-260.56 -9.084,-255.62 c -0.002,-0.27553 -0.22673,-0.49719 -0.50195,-0.49609 h -3.8457 v -7.8574 h 3.8457 v -11.281 h -0.002 a 7.1945,7.1945 0 0 0 -7.1914,-7.1426 z"
           transform="matrix(0.26458,0,0,0.26458,-81.571,9.3544)" />
      </g>
      <path
         inkscape:connector-curvature="0"
         id="path1059"
         style="fill:#4d4d4d;paint-order:normal"
         d="m 125.63,94.132 a 5.132,5.131 0 0 0 -5.131,5.1134 h -10e-4 v 13.953 a 5.1332,1.5669 0 0 0 -0.003,0.0155 5.1332,1.5669 0 0 0 0.003,0.0222 v 0.0222 h 0.003 a 5.1332,1.5669 0 0 0 5.1284,1.5224 5.1332,1.5669 0 0 0 5.1258,-1.5224 h 0.005 v -0.0315 a 5.1332,1.5669 0 0 0 0.002,-0.0129 5.1332,1.5669 0 0 0 -0.002,-0.0176 v -13.892 a 5.132,5.131 0 0 0 0.002,-0.04186 5.132,5.131 0 0 0 -5.132,-5.131 z" />
      <circle
         id="circle1061"
         style="fill:#d3bc5f;paint-order:normal"
         r="1.7859"
         cy="98.216003"
         cx="125.6" />
    </g>
    <g
       aria-label="IoT Enablement"
       style="font-style:normal;font-variant:normal;font-weight:normal;font-stretch:normal;font-size:53.33333206px;line-height:1.25;font-family:'Arial Rounded MT Bold';-inkscape-font-specification:'Arial Rounded MT Bold, Normal';font-variant-ligatures:normal;font-variant-caps:normal;font-variant-numeric:normal;font-feature-settings:normal;text-align:center;letter-spacing:0px;word-spacing:0px;writing-mode:lr-tb;text-anchor:middle;fill:#3771c8;fill-opacity:1;stroke:none"
       id="text1293">
      <path
         d="M 57.342796,119.03519 35.189106,98.690475 q -1.726261,-1.585302 -1.867199,-3.164362 -0.140937,-1.579059 1.004004,-2.825804 1.18017,-1.285106 2.765494,-1.278862 1.583758,-0.03055 3.3292,1.572365 l 22.15369,20.344718 q 1.745442,1.60292 1.868765,3.20116 0.140937,1.57906 -1.039233,2.86416 -1.127326,1.22757 -2.730265,1.24051 -1.604505,-0.0239 -3.330766,-1.60917 z"
         style="font-style:normal;font-variant:normal;font-weight:normal;font-stretch:normal;font-size:53.33333206px;font-family:'Arial Rounded MT Bold';-inkscape-font-specification:'Arial Rounded MT Bold, Normal';font-variant-ligatures:normal;font-variant-caps:normal;font-variant-numeric:normal;font-feature-settings:normal;text-align:center;writing-mode:lr-tb;text-anchor:middle;fill:#3771c8"
         id="path4538" />
      <path
         d="m 81.955062,82.139154 q 2.09654,2.387128 3.123038,5.05551 1.026498,2.668383 0.889373,5.353615 -0.137125,2.685232 -1.406397,5.186372 -1.286457,2.481569 -3.732284,4.629669 -2.426261,2.13091 -5.050747,3.04953 -2.624485,0.91863 -5.32452,0.72519 -2.697654,-0.2302 -5.176845,-1.55341 -2.47681,-1.35995 -4.590535,-3.76665 -2.130909,-2.42626 -3.157407,-5.094643 -1.026498,-2.668382 -0.891755,-5.316863 0.134743,-2.648481 1.440766,-5.147239 1.288839,-2.518325 3.675967,-4.614865 2.426261,-2.130909 5.089879,-3.083904 2.663619,-0.952996 5.344087,-0.742368 2.680469,0.210628 5.157279,1.570587 2.496376,1.342775 4.610101,3.749469 z m -5.361254,4.708623 q -2.869854,-3.267626 -5.915966,-3.81565 -3.026545,-0.565209 -5.452806,1.565701 -1.56533,1.37478 -2.037134,3.244848 -0.488989,1.850501 0.257278,4.002494 0.746266,2.151993 2.602219,4.265188 1.838769,2.093629 3.839681,3.109046 2.020479,0.998236 3.93342,0.808516 1.915324,-0.226475 3.519787,-1.635625 2.426261,-2.130909 2.256442,-5.205092 -0.167437,-3.110934 -3.002921,-6.339426 z"
         style="font-style:normal;font-variant:normal;font-weight:normal;font-stretch:normal;font-size:53.33333206px;font-family:'Arial Rounded MT Bold';-inkscape-font-specification:'Arial Rounded MT Bold, Normal';font-variant-ligatures:normal;font-variant-caps:normal;font-variant-numeric:normal;font-feature-settings:normal;text-align:center;writing-mode:lr-tb;text-anchor:middle;fill:#3771c8"
         id="path4540" />
      <path
         d="m 99.384242,48.738688 -7.065563,4.611857 15.159341,23.224767 q 1.30954,2.006271 1.05598,3.571199 -0.2678,1.54312 -1.68527,2.468338 -1.43928,0.939452 -2.99573,0.555957 -1.53463,-0.397729 -2.82994,-2.382193 L 85.86372,57.563846 78.798157,62.175703 q -1.657354,1.081793 -2.93395,0.888815 -1.29083,-0.214785 -2.073707,-1.414186 -0.811345,-1.243016 -0.452394,-2.503554 0.380758,-1.274771 1.97269,-2.313862 L 95.896881,43.395901 q 1.679162,-1.096027 2.969992,-0.881242 1.312637,0.200551 2.095517,1.399952 0.78287,1.199401 0.43816,2.481746 -0.35895,1.260538 -2.016308,2.342331 z"
         style="font-style:normal;font-variant:normal;font-weight:normal;font-stretch:normal;font-size:53.33333206px;font-family:'Arial Rounded MT Bold';-inkscape-font-specification:'Arial Rounded MT Bold, Normal';font-variant-ligatures:normal;font-variant-caps:normal;font-variant-numeric:normal;font-feature-settings:normal;text-align:center;writing-mode:lr-tb;text-anchor:middle;fill:#3771c8"
         id="path4542" />
      <path
         d="m 147.91165,26.055536 -16.22761,6.339274 3.41127,8.732346 14.94201,-5.837059 q 1.64944,-0.644351 2.74366,-0.205098 1.10899,0.40552 1.58278,1.618346 0.47379,1.212825 -0.0235,2.301734 -0.50671,1.064651 -2.18041,1.718478 l -14.94202,5.837059 3.95139,10.114968 16.78551,-6.557216 q 1.69796,-0.663303 2.85963,-0.194489 1.17646,0.435082 1.68815,1.744934 0.49274,1.261339 -0.0678,2.402931 -0.54576,1.107859 -2.24371,1.771162 l -19.57501,7.646926 q -2.35289,0.919148 -3.80337,0.283575 -1.42623,-0.645049 -2.33591,-2.973675 L 124.03449,34.06905 q -0.60645,-1.552417 -0.5246,-2.702717 0.0724,-1.174556 0.87206,-1.990203 0.81448,-0.849379 2.34264,-1.446351 l 19.01711,-7.428985 q 1.72221,-0.672778 2.85016,-0.218745 1.14273,0.420301 1.62599,1.657383 0.49274,1.261339 -0.053,2.369199 -0.53097,1.074127 -2.25318,1.746905 z"
         style="font-style:normal;font-variant:normal;font-weight:normal;font-stretch:normal;font-size:53.33333206px;font-family:'Arial Rounded MT Bold';-inkscape-font-specification:'Arial Rounded MT Bold, Normal';font-variant-ligatures:normal;font-variant-caps:normal;font-variant-numeric:normal;font-feature-settings:normal;text-align:center;writing-mode:lr-tb;text-anchor:middle;fill:#3771c8"
         id="path4544" />
      <path
         d="m 169.97894,27.89253 0.1939,0.837213 q 1.26844,-2.833226 3.16635,-4.448963 1.91742,-1.646984 4.7335,-2.299211 2.73997,-0.6346 5.17259,0.05834 2.43263,0.692942 4.0035,2.627981 0.97879,1.109855 1.52256,2.534314 0.54376,1.424458 1.07259,3.707767 l 2.98497,12.88801 q 0.48183,2.080348 -0.23545,3.369178 -0.6919,1.282953 -2.21411,1.635508 -1.54757,0.358431 -2.7643,-0.509198 -1.21673,-0.867629 -1.6868,-2.897237 l -2.67355,-11.543395 q -0.79325,-3.424963 -2.1745,-5.002955 -1.36176,-1.609238 -4.20321,-0.951135 -1.85202,0.428942 -3.11569,1.897782 -1.26954,1.443469 -1.53333,3.536123 -0.14897,1.665094 0.83231,5.901901 l 2.00956,8.676574 q 0.4877,2.105718 -0.25494,3.400423 -0.72315,1.263459 -2.27073,1.62189 -1.49683,0.34668 -2.71356,-0.52095 -1.21673,-0.867629 -1.6868,-2.897237 l -4.63611,-20.017008 q -0.45832,-1.978867 0.18098,-3.142713 0.63342,-1.189215 2.13026,-1.535894 0.91332,-0.211533 1.74895,0.04936 0.83562,0.26089 1.46669,1.023582 0.65645,0.756817 0.94437,1.999952 z"
         style="font-style:normal;font-variant:normal;font-weight:normal;font-stretch:normal;font-size:53.33333206px;font-family:'Arial Rounded MT Bold';-inkscape-font-specification:'Arial Rounded MT Bold, Normal';font-variant-ligatures:normal;font-variant-caps:normal;font-variant-numeric:normal;font-feature-settings:normal;text-align:center;writing-mode:lr-tb;text-anchor:middle;fill:#3771c8"
         id="path4546" />
      <path
         d="m 218.24078,41.274463 q -2.37966,2.237141 -4.69614,3.474432 -2.29299,1.208933 -5.2747,1.488521 -2.72243,0.255277 -4.89634,-0.613271 -2.15042,-0.896908 -3.43794,-2.633249 -1.28752,-1.736342 -1.48931,-3.88836 -0.27229,-2.903928 1.37653,-5.12485 1.64881,-2.220923 4.79824,-3.222446 0.65953,-0.218779 3.27906,-1.01368 2.61952,-0.794901 4.47093,-1.413154 1.8749,-0.646612 4.04392,-1.503894 -0.39221,-2.788061 -1.52496,-3.98964 -1.10925,-1.229939 -4.24653,-0.935763 -2.6965,0.252846 -4.00018,1.13361 -1.27775,0.878333 -2.122,2.474538 -0.81832,1.593775 -1.18698,2.125305 -0.34515,0.503171 -1.66748,0.627162 -1.19268,0.111836 -2.14474,-0.557413 -0.92856,-0.697608 -1.04039,-1.890293 -0.17505,-1.866811 0.98195,-3.753902 1.15701,-1.887091 3.85025,-3.29049 2.69324,-1.403399 6.86764,-1.794824 4.66703,-0.437617 7.44215,0.42687 2.77268,0.838558 4.08533,3.121817 1.33857,2.280828 1.70811,6.221874 0.2334,2.489081 0.37036,4.228684 0.16289,1.737171 0.33633,3.865692 0.1872,1.996451 1.03962,4.113617 0.87591,2.088807 0.93426,2.711077 0.10211,1.088973 -0.84991,2.093699 -0.92853,0.976367 -2.22493,1.097927 -1.08897,0.102111 -2.24683,-0.809399 -1.16029,-0.937437 -2.53532,-2.770197 z m -1.42703,-10.197771 q -1.50219,0.716287 -4.42312,1.644074 -2.89744,0.899428 -4.00909,1.317537 -1.11409,0.39218 -2.06854,1.370978 -0.95689,0.95287 -0.81102,2.508546 0.15074,1.607532 1.47632,2.634094 1.32316,1.000634 3.29368,0.815862 2.10016,-0.196928 3.77817,-1.269727 1.7015,-1.101159 2.39505,-2.630922 0.8086,-1.697486 0.46337,-5.379252 z"
         style="font-style:normal;font-variant:normal;font-weight:normal;font-stretch:normal;font-size:53.33333206px;font-family:'Arial Rounded MT Bold';-inkscape-font-specification:'Arial Rounded MT Bold, Normal';font-variant-ligatures:normal;font-variant-caps:normal;font-variant-numeric:normal;font-feature-settings:normal;text-align:center;writing-mode:lr-tb;text-anchor:middle;fill:#3771c8"
         id="path4548" />
      <path
         d="m 239.49919,9.3231592 -0.42635,10.8510018 q 2.08545,-2.003 4.21012,-3.014114 2.12569,-1.037134 5.19624,-0.916489 3.53893,0.139049 6.12668,1.93474 2.61479,1.77069 3.94624,5.028601 1.35849,3.232912 1.18673,7.604539 -0.12678,3.226676 -1.0658,5.900204 -0.91198,2.648529 -2.55098,4.564824 -1.639,1.916296 -3.9198,2.921274 -2.25375,0.97998 -4.93398,0.87467 -1.63936,-0.06441 -3.08123,-0.511991 -1.41585,-0.446557 -2.40615,-1.11095 -0.98929,-0.690414 -1.69131,-1.395603 -0.676,-0.704167 -1.7938,-2.103298 l -0.0276,0.702583 q -0.0787,2.003662 -1.08242,3.006696 -1.00267,0.977012 -2.4859,0.918734 -1.50926,-0.0593 -2.38014,-1.109927 -0.84383,-1.075625 -0.76511,-3.079288 l 1.21873,-31.0177322 q 0.0849,-2.1597917 0.98651,-3.2189586 0.9287,-1.084166 2.48999,-1.0228208 1.63936,0.064412 2.48218,1.1660599 0.84384,1.0756258 0.76716,3.0272449 z m -0.49091,21.1167988 q -0.16665,4.241519 1.66897,6.607078 1.86267,2.340559 5.01128,2.464272 2.68023,0.10531 4.69682,-2.134953 2.04364,-2.265261 2.21438,-6.610866 0.11042,-2.810332 -0.6165,-4.871711 -0.72692,-2.061378 -2.16721,-3.212563 -1.43926,-1.177206 -3.4169,-1.25491 -2.02969,-0.07975 -3.66097,0.976812 -1.63026,1.030539 -2.62383,3.102503 -0.99255,2.045942 -1.10604,4.934338 z"
         style="font-style:normal;font-variant:normal;font-weight:normal;font-stretch:normal;font-size:53.33333206px;font-family:'Arial Rounded MT Bold';-inkscape-font-specification:'Arial Rounded MT Bold, Normal';font-variant-ligatures:normal;font-variant-caps:normal;font-variant-numeric:normal;font-feature-settings:normal;text-align:center;writing-mode:lr-tb;text-anchor:middle;fill:#3771c8"
         id="path4550" />
      <path
         d="m 264.60797,42.213439 4.20869,-30.544744 q 0.29148,-2.1154295 1.3695,-3.0709755 1.10382,-0.9519914 2.70329,-0.7316041 1.59947,0.2203873 2.4305,1.4389763 0.83458,1.1927913 0.53954,3.3340193 l -4.20868,30.544743 q -0.29504,2.141228 -1.45045,3.08611 -1.12606,0.922639 -2.69974,0.705806 -1.54787,-0.213278 -2.37534,-1.457665 -0.80168,-1.240832 -0.51731,-3.304666 z"
         style="font-style:normal;font-variant:normal;font-weight:normal;font-stretch:normal;font-size:53.33333206px;font-family:'Arial Rounded MT Bold';-inkscape-font-specification:'Arial Rounded MT Bold, Normal';font-variant-ligatures:normal;font-variant-caps:normal;font-variant-numeric:normal;font-feature-settings:normal;text-align:center;writing-mode:lr-tb;text-anchor:middle;fill:#3771c8"
         id="path4552" />
      <path
         d="m 300.63156,40.640818 -13.5272,-3.224657 q -0.53627,2.361901 -0.0531,4.377855 0.50853,2.021993 1.81105,3.29626 1.32785,1.280307 3.17708,1.721131 1.24126,0.295895 2.32096,0.258792 1.11107,-0.0564 2.21861,-0.434891 1.11357,-0.403826 2.09328,-0.91988 0.9797,-0.516054 2.56148,-1.42401 0.64066,-0.329161 1.62861,-0.09365 1.06393,0.253624 1.58367,0.993263 0.51974,0.739638 0.26612,1.803576 -0.22343,0.937278 -1.25999,2.028749 -1.03052,1.066139 -2.80288,1.875122 -1.74099,0.789689 -4.17668,1.012202 -2.41037,0.228552 -5.32353,-0.465897 -6.66228,-1.588173 -9.45492,-6.269599 -2.79265,-4.681425 -1.24071,-11.191711 0.73068,-3.065154 2.26461,-5.456942 1.53997,-2.41712 3.73473,-3.875008 2.19476,-1.457888 4.98879,-1.835923 2.80006,-0.403367 5.91588,0.339391 4.05309,0.966189 6.5303,3.377165 2.50857,2.391683 3.30634,5.446396 0.79778,3.054713 0.12749,5.866548 -0.62199,2.609181 -2.30377,3.038186 -1.67574,0.403673 -4.38625,-0.242466 z m -12.59121,-7.151094 12.53927,2.989148 q 0.5921,-3.606846 -0.66314,-5.753296 -1.22386,-2.165744 -3.93437,-2.811883 -2.58385,-0.615946 -4.6845,0.784062 -2.06927,1.380716 -3.25726,4.791969 z"
         style="font-style:normal;font-variant:normal;font-weight:normal;font-stretch:normal;font-size:53.33333206px;font-family:'Arial Rounded MT Bold';-inkscape-font-specification:'Arial Rounded MT Bold, Normal';font-variant-ligatures:normal;font-variant-caps:normal;font-variant-numeric:normal;font-feature-settings:normal;text-align:center;writing-mode:lr-tb;text-anchor:middle;fill:#3771c8"
         id="path4554" />
      <path
         d="m 336.39729,52.145543 -3.70395,8.697256 q -0.87753,2.060507 -2.2507,2.692815 -1.37318,0.632307 -2.90658,-0.02073 -1.48548,-0.632632 -1.98114,-2.060831 -0.47169,-1.417996 0.40583,-3.478503 l 4.43863,-10.422332 q 1.05098,-2.467816 1.46488,-3.904927 0.4139,-1.437111 0.0385,-2.615965 -0.3652,-1.202813 -1.97048,-1.886464 -3.21056,-1.367301 -5.17956,0.398202 -1.94504,1.775706 -3.70008,5.89672 l -3.76518,8.841013 q -0.86732,2.036547 -2.2507,2.692814 -1.34921,0.642512 -2.85866,-3.24e-4 -1.48548,-0.632632 -2.00509,-2.071035 -0.48545,-1.452158 0.38186,-3.488706 l 7.96913,-18.712279 q 0.78568,-1.844872 2.03241,-2.446117 1.27069,-0.591041 2.66033,7.76e-4 1.34173,0.57141 1.84048,1.859405 0.53292,1.274239 -0.14053,2.855558 l -0.26529,0.622944 q 2.56843,-1.312082 4.91729,-1.443954 2.34886,-0.131873 4.72084,0.878297 2.46782,1.050985 3.82246,2.788397 1.35464,1.737411 1.65778,4.21582 2.51031,-1.308531 4.81125,-1.460811 2.31115,-0.176239 4.61125,0.80332 2.68345,1.142819 4.17519,3.023535 1.49175,1.880715 1.61342,4.253534 0.0835,2.130126 -1.5389,5.939668 l -5.43859,12.770351 q -0.87752,2.060507 -2.2507,2.692815 -1.37317,0.632308 -2.90657,-0.02073 -1.48549,-0.632631 -2.0051,-2.071035 -0.48545,-1.452158 0.38187,-3.488706 l 4.68351,-10.997357 q 0.89793,-2.108426 1.24705,-3.459903 0.37309,-1.341274 -0.0502,-2.540535 -0.42332,-1.199261 -2.0286,-1.882912 -1.29381,-0.551002 -2.79434,-0.284284 -1.47657,0.27692 -2.67447,1.295226 -1.42284,1.347085 -3.2085,5.539978 z"
         style="font-style:normal;font-variant:normal;font-weight:normal;font-stretch:normal;font-size:53.33333206px;font-family:'Arial Rounded MT Bold';-inkscape-font-specification:'Arial Rounded MT Bold, Normal';font-variant-ligatures:normal;font-variant-caps:normal;font-variant-numeric:normal;font-feature-settings:normal;text-align:center;writing-mode:lr-tb;text-anchor:middle;fill:#3771c8"
         id="path4556" />
      <path
         d="m 375.55068,75.373165 -11.68945,-7.53263 q -1.28997,2.049909 -1.50345,4.111942 -0.19158,2.076139 0.61402,3.710555 0.82749,1.648522 2.42549,2.678264 1.07263,0.691196 2.10341,1.014644 1.06678,0.315664 2.23715,0.326325 1.18449,-0.01123 2.27995,-0.172765 1.09546,-0.161537 2.88896,-0.492865 0.71361,-0.0978 1.56733,0.452336 0.91939,0.592454 1.1641,1.46269 0.24471,0.870235 -0.34774,1.78963 -0.52192,0.809944 -1.86205,1.495386 -1.32601,0.663552 -3.26642,0.838252 -1.90442,0.166915 -4.27584,-0.431813 -2.34953,-0.584622 -4.86692,-2.206817 -5.75717,-3.709892 -6.83725,-9.052928 -1.08009,-5.343037 2.54517,-10.968859 1.70683,-2.648733 3.94781,-4.395622 2.25508,-1.768779 4.80936,-2.415348 2.55428,-0.646569 5.31535,-0.07558 2.77516,0.549097 5.46768,2.284141 3.50246,2.256968 5.03874,5.353602 1.57229,3.088849 1.31069,6.235162 -0.26159,3.146313 -1.82737,5.576143 -1.45292,2.254707 -3.18174,2.101051 -1.71471,-0.175546 -4.05698,-1.684894 z m -9.50301,-10.925636 10.83573,6.982495 q 1.75594,-3.205711 1.28449,-5.647144 -0.43545,-2.449219 -2.77771,-3.958566 -2.23282,-1.438817 -4.67911,-0.815601 -2.4103,0.615432 -4.6634,3.438816 z"
         style="font-style:normal;font-variant:normal;font-weight:normal;font-stretch:normal;font-size:53.33333206px;font-family:'Arial Rounded MT Bold';-inkscape-font-specification:'Arial Rounded MT Bold, Normal';font-variant-ligatures:normal;font-variant-caps:normal;font-variant-numeric:normal;font-feature-settings:normal;text-align:center;writing-mode:lr-tb;text-anchor:middle;fill:#3771c8"
         id="path4558" />
      <path
         d="m 399.47643,78.119573 -0.5609,0.651089 q 3.03526,-0.650563 5.46018,-0.07394 2.46164,0.573892 4.65166,2.460557 2.13084,1.835674 3.00903,4.207725 0.87818,2.372051 0.2451,4.7827 -0.31714,1.445416 -1.14512,2.725729 -0.82799,1.280314 -2.35772,3.056009 l -8.63446,10.022816 q -1.39376,1.61786 -2.85737,1.80063 -1.44388,0.19977 -2.62768,-0.82005 -1.20352,-1.03682 -1.22239,-2.53109 -0.0189,-1.49427 1.34089,-3.07267 l 7.73363,-8.977127 q 2.29459,-2.663543 2.75164,-4.710255 0.49377,-2.049445 -1.71599,-3.953107 -1.44028,-1.240779 -3.37195,-1.39248 -1.91466,-0.171431 -3.75887,0.85213 -1.43142,0.863587 -4.26991,4.15849 l -5.81297,6.747643 q -1.41075,1.637587 -2.89409,1.803362 -1.44662,0.163043 -2.65014,-0.873773 -1.16407,-1.002821 -1.18294,-2.497095 -0.0189,-1.494273 1.34089,-3.072669 l 13.41062,-15.566933 q 1.32576,-1.538936 2.64247,-1.710777 1.3337,-0.191571 2.49777,0.811251 0.71027,0.611891 0.99349,1.440213 0.28322,0.828321 0.0407,1.788088 -0.22276,0.976764 -1.05561,1.943532 z"
         style="font-style:normal;font-variant:normal;font-weight:normal;font-stretch:normal;font-size:53.33333206px;font-family:'Arial Rounded MT Bold';-inkscape-font-specification:'Arial Rounded MT Bold, Normal';font-variant-ligatures:normal;font-variant-caps:normal;font-variant-numeric:normal;font-feature-settings:normal;text-align:center;writing-mode:lr-tb;text-anchor:middle;fill:#3771c8"
         id="path4560" />
      <path
         d="m 423.09815,95.419956 0.53121,0.572864 3.13166,-2.903916 q 1.2603,-1.168649 2.01995,-1.766514 0.79646,-0.596477 1.59534,-0.769033 0.81799,-0.190263 1.67381,0.08159 0.87493,0.254142 1.53008,0.960675 0.92075,0.992965 0.91971,2.48554 -6.9e-4,0.995051 -0.60237,1.801578 -0.56488,0.807915 -1.88246,2.029685 l -3.55176,3.293469 1.77068,1.90954 q 1.02699,1.10754 1.02352,2.1762 0.0333,1.07004 -0.78777,1.83143 -1.05025,0.97388 -2.24945,0.52323 -1.1815,-0.43156 -2.61575,-1.97829 l -0.90304,-0.97387 -9.58594,8.88881 q -1.22211,1.13324 -1.81962,1.82936 -0.56071,0.69751 -0.64438,1.44987 -0.0469,0.75375 0.73223,1.59396 0.42496,0.45829 1.3037,1.09955 0.89784,0.62355 1.3051,1.06275 0.58432,0.63015 0.52912,1.60471 -0.0184,0.97596 -0.76312,1.66652 -1.2603,1.16865 -3.20354,0.41352 -1.94323,-0.75514 -4.33365,-3.33303 -2.26647,-2.44422 -2.61401,-4.46591 -0.34754,-2.0217 0.73187,-3.76842 1.09712,-1.72763 3.52225,-3.97639 l 10.00603,-9.278369 -0.63745,-0.687437 q -1.0447,-1.126634 -1.05894,-2.214384 -0.0142,-1.087751 0.80687,-1.849143 0.82111,-0.761393 1.9033,-0.628421 1.119,0.13436 2.21682,1.31828 z"
         style="font-style:normal;font-variant:normal;font-weight:normal;font-stretch:normal;font-size:53.33333206px;font-family:'Arial Rounded MT Bold';-inkscape-font-specification:'Arial Rounded MT Bold, Normal';font-variant-ligatures:normal;font-variant-caps:normal;font-variant-numeric:normal;font-feature-settings:normal;text-align:center;writing-mode:lr-tb;text-anchor:middle;fill:#3771c8"
         id="path4562" />
    </g>
    <path
       transform="rotate(90)"
       style="opacity:1;fill:none;fill-opacity:1;fill-rule:evenodd;stroke:none;stroke-width:0.8309384;stroke-linecap:round;stroke-linejoin:round;stroke-miterlimit:4;stroke-dasharray:none;stroke-opacity:1;paint-order:normal"
       d="M 488.82446,-235.08458 A 222.34756,230.08456 0 0 1 266.4769,-5.0000153 222.34756,230.08456 0 0 1 44.129333,-235.08458 222.34756,230.08456 0 0 1 266.4769,-465.16914 222.34756,230.08456 0 0 1 488.82446,-235.08458 Z"
       id="path1295" />
  </g>
</svg>
