<?xml version="1.0" encoding="utf-8"?>
<!-- Generator: Adobe Illustrator 20.1.0, SVG Export Plug-In . SVG Version: 6.00 Build 0)  -->
<svg version="1.1" id="Layer_1" xmlns="http://www.w3.org/2000/svg" xmlns:xlink="http://www.w3.org/1999/xlink" x="0px" y="0px"  width="120" height="120"
	 viewBox="0 0 120 120" style="enable-background:new 0 0 120 120;" xml:space="preserve">
<style type="text/css">
	.st0{fill:#FFFFFF;}
</style>
<path class="st0" d="M17.7,73.2v12.4c0,0.2-0.1,0.3-0.3,0.3h-1.8c-0.2,0-0.3-0.2-0.3-0.3V69.5c0-0.2,0.1-0.3,0.3-0.3h3.1
	c0.6,0,0.8,0.1,1,0.7l4.4,13.4l4.2-13.2c0.3-0.9,0.4-1,0.9-1h3.3c0.2,0,0.3,0.2,0.3,0.3v16.2c0,0.2-0.1,0.3-0.3,0.3H30
	c-0.2,0-0.3-0.2-0.3-0.3V73.2l-4,11.7c-0.3,1-0.4,1-1,1h-2c-0.5,0-0.6-0.1-0.8-0.9L17.7,73.2z"/>
<path class="st0" d="M24.4,91.7h0.9c0.1,0,0.1,0,0.1,0.1v3.4c0,0.6,0.1,0.8,0.3,1c0.2,0.2,0.5,0.3,0.9,0.3c0.4,0,0.7-0.1,0.9-0.3
	c0.3-0.2,0.4-0.5,0.4-1.1v-3.4c0-0.1,0-0.1,0.1-0.1h0.6c0.1,0,0.1,0,0.1,0.1v3.7c0,0.6-0.2,1.1-0.7,1.4c-0.4,0.3-0.9,0.4-1.6,0.4
	c-0.7,0-1.2-0.1-1.6-0.4c-0.5-0.4-0.6-0.8-0.6-1.7v-3.4C24.3,91.8,24.3,91.7,24.4,91.7"/>
<path class="st0" d="M33.9,93v4.1c0,0.1,0,0.1-0.1,0.1h-0.6c-0.1,0-0.1,0-0.1-0.1v-5.3c0-0.1,0.1-0.1,0.1-0.1h0.9
	c0.1,0,0.2,0,0.3,0.2l2.4,3.9v-4c0-0.1,0-0.1,0.1-0.1h0.6c0.1,0,0.1,0.1,0.1,0.1v5.3c0,0.1,0,0.1-0.1,0.1h-0.8c-0.1,0-0.2,0-0.3-0.2
	L33.9,93z"/>
<path class="st0" d="M42,97.1v-5.3c0-0.1,0-0.1,0.1-0.1H43c0.1,0,0.1,0.1,0.1,0.1v5.3c0,0.1,0,0.1-0.1,0.1h-0.9
	C42.1,97.2,42,97.2,42,97.1"/>
<path class="st0" d="M49.5,96.1l1.4-4.2c0-0.2,0.1-0.2,0.2-0.2h0.5c0.1,0,0.1,0,0.1,0.1c0,0,0,0.1,0,0.1L50,97
	c-0.1,0.3-0.1,0.3-0.3,0.3h-0.6c-0.2,0-0.2,0-0.3-0.3L47,91.9c0,0,0-0.1,0-0.1c0-0.1,0-0.1,0.2-0.1h0.7c0.2,0,0.2,0,0.3,0.2
	L49.5,96.1z"/>
<path class="st0" d="M56.7,92.5v1.4h1.7c0.1,0,0.1,0.1,0.1,0.1v0.6c0,0.1,0,0.1-0.1,0.1h-1.7v1.6H59c0.1,0,0.1,0.1,0.1,0.1v0.6
	c0,0.1,0,0.1-0.1,0.1h-3.2c-0.1,0-0.1,0-0.1-0.1v-5.3c0-0.1,0.1-0.1,0.1-0.1h3.1c0.1,0,0.1,0,0.1,0.1v0.6c0,0.1-0.1,0.1-0.1,0.1
	H56.7z"/>
<path class="st0" d="M64.2,94.1h0.7c0.5,0,0.8-0.3,0.8-0.8c0-0.5-0.3-0.8-0.8-0.8h-0.7V94.1z M64.2,94.7v2.4c0,0.1,0,0.1-0.1,0.1
	h-0.9c-0.1,0-0.1,0-0.1-0.1v-5.3c0-0.1,0.1-0.1,0.1-0.1H65c0.6,0,1,0.1,1.3,0.4c0.3,0.3,0.4,0.6,0.4,1c0,0.8-0.4,1.3-1.2,1.4l0,0
	c0,0.1,0.1,0.2,0.3,0.4c0.2,0.3,0.4,0.5,0.5,0.7l0.9,1.3c0.1,0.1,0.1,0.1,0.1,0.2c0,0.1-0.1,0.1-0.2,0.1h-0.9c0,0-0.1,0-0.1,0
	l-1.6-2.4c-0.1-0.1-0.1-0.1-0.2-0.1H64.2z"/>
<path class="st0" d="M72.8,95l-0.8-0.6c-0.5-0.4-0.7-0.7-0.7-1.2c0-0.9,0.7-1.5,1.8-1.5c0.8,0,1.3,0.2,1.3,0.4v0.6
	c0,0.1,0,0.1-0.1,0.1c0,0-0.1,0-0.1,0c-0.4-0.2-0.7-0.3-1-0.3c-0.5,0-0.8,0.2-0.8,0.6c0,0.3,0.1,0.4,0.5,0.7l0.9,0.6
	c0.6,0.4,0.8,0.8,0.8,1.3c0,1-0.7,1.6-1.9,1.6c-0.9,0-1.5-0.2-1.5-0.5v-0.6c0-0.1,0-0.1,0.1-0.1c0,0,0.1,0,0.1,0
	c0.4,0.2,0.8,0.3,1.2,0.3c0.6,0,0.9-0.2,0.9-0.7C73.4,95.5,73.2,95.3,72.8,95"/>
<path class="st0" d="M78.6,97.1v-5.3c0-0.1,0-0.1,0.1-0.1h0.9c0.1,0,0.1,0.1,0.1,0.1v5.3c0,0.1,0,0.1-0.1,0.1h-0.9
	C78.7,97.2,78.6,97.2,78.6,97.1"/>
<path class="st0" d="M85.3,92.5h-1.5c-0.1,0-0.1,0-0.1-0.1v-0.6c0-0.1,0.1-0.1,0.1-0.1h4.2c0.1,0,0.1,0,0.1,0.1v0.6
	c0,0.1-0.1,0.1-0.1,0.1h-1.6v4.6c0,0.1-0.1,0.1-0.1,0.1h-0.9c-0.1,0-0.1,0-0.1-0.1V92.5z"/>
<path class="st0" d="M93.6,95.1l-1.9-3.1c0,0,0-0.1,0-0.1c0-0.1,0.1-0.1,0.2-0.1h0.8c0.2,0,0.2,0,0.3,0.2l1.3,2.2l1.2-2.2
	c0.1-0.1,0.1-0.1,0.2-0.1h0.6c0.1,0,0.2,0,0.2,0.1c0,0,0,0.1,0,0.1L94.7,95v2.1c0,0.1,0,0.1-0.1,0.1h-0.9c-0.1,0-0.1-0.1-0.1-0.1
	V95.1z"/>
<path class="st0" d="M43.3,85.4L43.3,85.4c-0.4,0-0.5,0-0.8,0.2l-0.8,0.3c-0.6,0.2-1.4,0.4-2.3,0.4c-2.7,0-4.1-1.4-4.1-4v-8
	c0-0.2,0.1-0.3,0.3-0.3h2.3c0.2,0,0.3,0.1,0.3,0.3v7c0,1.9,0.7,2.8,2.3,2.8c1.6,0,2.4-0.6,2.4-1.7v-8c0-0.2,0.1-0.3,0.3-0.3h2.3
	c0.2,0,0.3,0.1,0.3,0.3v11.5c0,0.2-0.1,0.3-0.3,0.3h-2c-0.1,0-0.3-0.1-0.3-0.3V85.4z"/>
<path class="st0" d="M51.1,74.6c0.3,0,0.3,0,0.7-0.2c0.9-0.4,1.9-0.7,2.7-0.7c0.8,0,1,0.1,1,0.5V76c0,0.3-0.1,0.4-0.4,0.4
	c-0.1,0-0.2,0-0.3,0l-0.4,0l-0.6-0.1c-0.2,0-0.4,0-0.6,0c-1.3,0-1.8,0.5-1.8,1.8v7.7c0,0.2-0.1,0.3-0.3,0.3h-2.3
	c-0.2,0-0.3-0.1-0.3-0.3V74.2c0-0.2,0.1-0.3,0.3-0.3h2c0.2,0,0.4,0.1,0.4,0.3V74.6z"/>
<path class="st0" d="M64.9,82.4v-4.9c0-1.3-0.8-1.9-2.4-1.9c-2.2,0-3.4,1.5-3.4,4.2c0,2.8,1.2,4.3,3.3,4.3
	C64,84.1,64.9,83.5,64.9,82.4 M65.1,85.3c-0.2,0-0.3,0-0.5,0.1c-0.8,0.5-1.8,0.7-2.7,0.7c-3.5,0-5.7-2.4-5.7-6.1
	c0-3.8,2.4-6.4,5.8-6.4c0.9,0,1.6,0.2,2.3,0.6c0.3,0.1,0.3,0.2,0.6,0.2v-5.1c0-0.2,0.1-0.3,0.3-0.3h2.3c0.2,0,0.3,0.1,0.3,0.3v16.3
	c0,0.2-0.1,0.3-0.3,0.3h-2c-0.2,0-0.4-0.1-0.4-0.3V85.3z"/>
<path class="st0" d="M72.6,79.9c0,2.8,1.1,4.4,3,4.4c1.9,0,3-1.6,3-4.3c0-2.8-1.1-4.4-3-4.4C73.7,75.6,72.6,77.2,72.6,79.9 M69.7,80
	c0-4.1,2.1-6.3,5.9-6.3c1.8,0,3,0.4,4,1.3c1.3,1.1,1.9,2.8,1.9,4.9c0,4.3-2,6.5-6,6.5c-1.9,0-3-0.4-4-1.3
	C70.3,83.9,69.7,82.3,69.7,80"/>
<path class="st0" d="M92.8,83.6v1.2c0,0.8-1.7,1.3-3.9,1.3c-3.8,0-6-2.3-6-6.1c0-3.8,2.4-6.4,6.1-6.4c2.1,0,3.8,0.5,3.8,1.2v1.3
	c0,0.2-0.1,0.3-0.3,0.3c-0.1,0-0.2,0-0.4-0.1c-0.7-0.4-1.8-0.7-2.7-0.7c-2.4,0-3.7,1.4-3.7,4.2c0,2.9,1.2,4.3,3.5,4.3
	c1,0,2.1-0.3,2.9-0.7c0.1-0.1,0.3-0.1,0.4-0.1C92.7,83.2,92.8,83.4,92.8,83.6"/>
<path class="st0" d="M97.6,74.4L97.6,74.4c0.3,0,0.4,0,0.8-0.2c0.8-0.4,1.7-0.6,2.8-0.6c2.7,0,4.2,1.5,4.2,4.1v7.9
	c0,0.2-0.1,0.3-0.3,0.3h-2.3c-0.2,0-0.3-0.1-0.3-0.3v-6.9c0-2-0.7-2.9-2.3-2.9c-1.6,0-2.5,0.7-2.5,1.7v8.1c0,0.2-0.1,0.3-0.3,0.3H95
	c-0.2,0-0.3-0.1-0.3-0.3V69.3c0-0.2,0.1-0.3,0.3-0.3h2.3c0.2,0,0.3,0.1,0.3,0.3V74.4z"/>
<path class="st0" d="M72.9,51.6h-7.1c-0.8,0-2.6,0.2-3.8,0.9c-1,0.6-1.8,1.7-1.8,1.7s-0.8-1.1-1.8-1.7c-1.2-0.7-3-0.9-3.8-0.9h-7.1
	C48.2,52.8,49,54,50,55c5.5,5.5,10.2,7.3,10.2,7.3s4.6-1.7,10.2-7.3C71.5,54,72.3,52.8,72.9,51.6"/>
<path class="st0" d="M77.7,42.9l-0.9,2.3c0,0-1.1,0.5-2.9,0.5c-1.8,0-1.6-0.1-3.4-0.1c-3.9,0-5.6,1.3-5.6,1.3s0.8-1.9,3.2-2.8
	c1.1-0.5,2-0.5,2.7-0.5c0.7,0,2.6,0.3,3.8,0.3C75.9,43.8,77.7,42.9,77.7,42.9"/>
<path class="st0" d="M42.8,42.9l0.9,2.3c0,0,1.1,0.5,2.9,0.5c1.8,0,1.6-0.1,3.4-0.1c3.9,0,5.6,1.3,5.6,1.3s-0.8-1.9-3.2-2.8
	c-1.1-0.5-2-0.5-2.7-0.5c-0.7,0-2.6,0.3-3.8,0.3C44.6,43.8,42.8,42.9,42.8,42.9"/>
<path class="st0" d="M65,33.6c0-1.2-0.4-2.3-1.2-3.1l-0.2,15.9l-0.5-16.5c-0.4-0.3-0.9-0.6-1.4-0.8l-0.2,18.5l-0.5-18.7
	c-0.3,0-0.5-0.1-0.8-0.1c-0.3,0-0.6,0-0.8,0.1l-0.5,18.7l-0.2-18.5c-0.5,0.2-1,0.4-1.4,0.8l-0.5,16.5l-0.2-15.9
	c-0.7,0.8-1.2,1.9-1.2,3.1c0,0.9-0.2,7.3-0.2,9.9c0,2.9,2.2,4.3,3.2,4.6c1.5,0.6,1.7,2,1.7,2s0.2-1.4,1.7-2c1-0.4,3.2-1.7,3.2-4.6
	C65.2,40.9,65,34.5,65,33.6"/>
<path class="st0" d="M76.5,48H66.1c-3.4,0-5.7,2.1-5.8,4.8c0.1-0.1,1.1-2.8,5.7-2.8h9.7L76.5,48L76.5,48z"/>
<path class="st0" d="M44,48h10.4c3.4,0,5.7,2.1,5.8,4.8c-0.1-0.1-1.1-2.8-5.7-2.8h-9.7L44,48L44,48z"/>
<path class="st0" d="M60.3,24.1l0.1,1.8l0.4,0.8c0.6,0.1,1.1,0.2,1.6,0.3l0-0.1l0.8-0.6l0.8-1.6l0.1,0l0.1,0l-0.7,1.6l0.1,1l0,0.1
	c0.5,0.3,1,0.6,1.4,1.1l0.1-0.1l0.9-0.2l1.4-1.1l0.1,0.1l0.1,0.1l-1.3,1.2l-0.4,0.9l-0.1,0c0.4,0.5,0.7,1.1,0.9,1.7l0.9,0.2l1.7-0.5
	l0,0.1l0,0.1l-1.6,0.6l-0.7,0.7l0,0c0.1,0.3,0.1,0.7,0.1,1c0,0,0,0.5,0,1.2l0.7,0.3l1.7-0.1l0,0.1l0,0.1l-1.7,0.2L67.2,36
	c0,0.6,0,1.4,0.1,2.1l0.8,0.4l1.7,0.1v0.2L68,38.8l-0.7,0.4c0,0.7,0,1.4,0.1,2l0.7,0.4l1.7,0.1v0.2L68.1,42l-0.7,0.4c0,0.6,0,1,0,1
	c0,0,0,0.1,0,0.1c0.2-0.1,0.4-0.2,0.7-0.3c1.1-0.5,2-0.5,2.7-0.5c0.7,0,2.6,0.3,3.8,0.3c0.2,0,0.5,0,0.7-0.1c0-0.2,0-0.4,0-0.6V24.1
	H60.3z M45.2,42.4c0,0.1,0,0.3,0,0.6c0.2,0,0.5,0.1,0.7,0.1c1.2,0,3.2-0.3,3.8-0.3c0.7,0,1.6,0.1,2.7,0.5c0.2,0.1,0.4,0.2,0.6,0.3
	c0,0,0-0.1,0-0.1c0-0.1,0-0.5,0-1.1L52.4,42l-1.7-0.1v-0.2l1.7-0.1l0.7-0.4c0-0.6,0-1.3,0.1-2.1l-0.7-0.4l-1.7-0.1v-0.2l1.7-0.1
	l0.7-0.4c0-0.8,0-1.5,0.1-2.2l-0.7-0.4l-1.7-0.2l0-0.1l0-0.1l1.7,0.1l0.7-0.3c0-0.7,0-1.2,0-1.2c0-0.4,0-0.7,0.1-1.1l-0.6-0.7
	l-1.6-0.6l0-0.1l0-0.1l1.7,0.5l0.8-0.1c0.2-0.6,0.5-1.2,0.9-1.8l0,0l-0.4-0.9L53,27.5l0.1-0.1l0.1-0.1l1.4,1.1l0.9,0.2l0,0
	c0.4-0.4,0.9-0.8,1.4-1.1l0-0.1l0.1-1L56.2,25l0.1,0l0.1,0l0.8,1.6L58,27l0,0.1c0.5-0.2,1.1-0.3,1.6-0.3l0.4-0.8l0.1-1.8h-15V42.4z"
	/>
</svg>
